<svg width="142" height="204" viewBox="0 0 142 204" fill="none" xmlns="http://www.w3.org/2000/svg">
<g opacity="0.4">
<path d="M77.827 3.28215C77.8272 2.82941 78.0071 2.39527 78.3273 2.07514C78.6474 1.755 79.0815 1.57507 79.5343 1.57489H85.5097C85.7379 1.56848 85.9652 1.6079 86.1779 1.69081C86.3906 1.77372 86.5846 1.89845 86.7483 2.05762C86.912 2.21679 87.0421 2.40717 87.131 2.61749C87.2198 2.82782 87.2656 3.05383 87.2656 3.28215C87.2656 3.51048 87.2198 3.73649 87.131 3.94682C87.0421 4.15715 86.912 4.34753 86.7483 4.50669C86.5846 4.66586 86.3906 4.79059 86.1779 4.8735C85.9652 4.95642 85.7379 4.99583 85.5097 4.98942H79.5343C79.0815 4.98942 78.6472 4.80955 78.3271 4.48937C78.0069 4.1692 77.827 3.73495 77.827 3.28215Z" stroke="url(#paint0_linear_18_2750)" stroke-width="1.87369"/>
<path d="M63.3153 201.327C63.3153 202.27 62.5513 203.035 61.6081 203.035H55.6326C55.1798 203.035 54.7454 202.855 54.4252 202.535C54.105 202.214 53.925 201.78 53.925 201.327C53.925 200.874 54.105 200.44 54.4252 200.12C54.7454 199.799 55.1798 199.62 55.6326 199.62H61.6081C62.5513 199.62 63.3153 200.384 63.3153 201.327Z" stroke="url(#paint1_linear_18_2750)" stroke-width="1.87369"/>
<path d="M70.1442 10.111C70.1443 9.6583 70.3243 9.22416 70.6444 8.90402C70.9645 8.58389 71.3987 8.40396 71.8514 8.40378H92.3393C92.7837 8.41627 93.2058 8.60161 93.5158 8.92042C93.8258 9.23924 93.9992 9.66637 93.9992 10.111C93.9992 10.5557 93.8258 10.9828 93.5158 11.3017C93.2058 11.6205 92.7837 11.8058 92.3393 11.8183H71.8514C71.3986 11.8183 70.9644 11.6384 70.6442 11.3183C70.324 10.9981 70.1442 10.5638 70.1442 10.111Z" stroke="url(#paint2_linear_18_2750)" stroke-width="1.87369"/>
<path d="M70.9989 194.498C70.9989 195.441 70.2348 196.205 69.2916 196.205H48.8044C48.3516 196.205 47.9174 196.025 47.5972 195.705C47.277 195.385 47.0972 194.951 47.0972 194.498C47.0972 194.045 47.277 193.611 47.5972 193.291C47.9174 192.971 48.3516 192.791 48.8044 192.791H69.2916C70.2348 192.791 70.9989 193.555 70.9989 194.498Z" stroke="url(#paint3_linear_18_2750)" stroke-width="1.87369"/>
<path d="M65.0227 16.9406C65.0229 16.4879 65.2028 16.0537 65.5229 15.7336C65.8431 15.4134 66.2772 15.2335 66.73 15.2333H92.3396C92.7841 15.2458 93.2062 15.4312 93.5162 15.75C93.8261 16.0688 93.9996 16.4959 93.9996 16.9406C93.9996 17.3853 93.8261 17.8124 93.5162 18.1312C93.2062 18.45 92.7841 18.6354 92.3396 18.6479H66.73C66.2772 18.6479 65.8429 18.468 65.5227 18.1478C65.2026 17.8276 65.0227 17.3934 65.0227 16.9406Z" stroke="url(#paint4_linear_18_2750)" stroke-width="1.87369"/>
<path d="M76.1206 187.668C76.1206 188.612 75.3566 189.376 74.4134 189.376H48.8044C48.3516 189.376 47.9174 189.196 47.5972 188.876C47.277 188.555 47.0972 188.121 47.0972 187.668C47.0972 187.216 47.277 186.781 47.5972 186.461C47.9174 186.141 48.3516 185.961 48.8044 185.961H74.4134C75.3566 185.961 76.1206 186.726 76.1206 187.668Z" stroke="url(#paint5_linear_18_2750)" stroke-width="1.87369"/>
<path d="M59.9014 23.7694C59.9015 23.3166 60.0815 22.8825 60.4016 22.5623C60.7218 22.2422 61.1559 22.0623 61.6086 22.0621H92.34C92.7845 22.0746 93.2066 22.2599 93.5166 22.5787C93.8266 22.8976 94 23.3247 94 23.7694C94 24.214 93.8266 24.6412 93.5166 24.96C93.2066 25.2788 92.7845 25.4641 92.34 25.4766H61.6086C61.1558 25.4766 60.7216 25.2968 60.4014 24.9766C60.0812 24.6564 59.9014 24.2222 59.9014 23.7694Z" stroke="url(#paint6_linear_18_2750)" stroke-width="1.87369"/>
<path d="M81.2424 180.84C81.2424 181.783 80.4784 182.547 79.5352 182.547H48.8044C48.3516 182.547 47.9174 182.367 47.5972 182.047C47.277 181.727 47.0972 181.293 47.0972 180.84C47.0972 180.387 47.277 179.953 47.5972 179.632C47.9174 179.312 48.3516 179.132 48.8044 179.132H79.5352C80.4784 179.132 81.2424 179.897 81.2424 180.84Z" stroke="url(#paint7_linear_18_2750)" stroke-width="1.87369"/>
<path d="M54.78 30.5988C54.78 29.6556 55.5441 28.8909 56.4873 28.8909H92.3405C92.7875 28.8997 93.2132 29.0836 93.5262 29.4028C93.8392 29.7221 94.0145 30.1514 94.0145 30.5985C94.0145 31.0456 93.8392 31.4748 93.5262 31.7941C93.2132 32.1134 92.7875 32.2972 92.3405 32.3061H56.4873C56.0345 32.3061 55.6002 32.1262 55.2801 31.806C54.9599 31.4858 54.78 31.0516 54.78 30.5988Z" stroke="url(#paint8_linear_18_2750)" stroke-width="1.87369"/>
<path d="M86.3649 174.01C86.3649 174.954 85.6002 175.718 84.657 175.718H48.8044C48.3516 175.718 47.9174 175.538 47.5972 175.218C47.277 174.898 47.0972 174.463 47.0972 174.01C47.0972 173.558 47.277 173.123 47.5972 172.803C47.9174 172.483 48.3516 172.303 48.8044 172.303H84.657C85.6002 172.303 86.3649 173.068 86.3649 174.01Z" stroke="url(#paint9_linear_18_2750)" stroke-width="1.87369"/>
<path d="M49.657 37.4277C49.657 36.4845 50.421 35.7204 51.3642 35.7204H92.3392C92.792 35.7204 93.2263 35.9003 93.5465 36.2205C93.8666 36.5406 94.0465 36.9749 94.0465 37.4277C94.0465 37.8805 93.8666 38.3147 93.5465 38.6349C93.2263 38.9551 92.792 39.135 92.3392 39.135H51.3642C50.9114 39.135 50.4772 38.9551 50.157 38.6349C49.8369 38.3147 49.657 37.8805 49.657 37.4277Z" stroke="url(#paint10_linear_18_2750)" stroke-width="1.87369"/>
<path d="M91.4867 167.181C91.4865 167.634 91.3066 168.068 90.9864 168.388C90.6663 168.708 90.2322 168.888 89.7794 168.888H48.8044C48.3516 168.888 47.9174 168.708 47.5972 168.388C47.277 168.068 47.0972 167.634 47.0972 167.181C47.0972 166.728 47.277 166.294 47.5972 165.974C47.9174 165.654 48.3516 165.474 48.8044 165.474H89.7794C90.2322 165.474 90.6665 165.654 90.9866 165.974C91.3068 166.294 91.4867 166.728 91.4867 167.181Z" stroke="url(#paint11_linear_18_2750)" stroke-width="1.87369"/>
<path d="M43.6824 44.2572C43.6824 43.314 44.4464 42.55 45.3896 42.55H92.3401C92.7928 42.55 93.2271 42.7299 93.5473 43.05C93.8674 43.3702 94.0473 43.8045 94.0473 44.2572C94.0473 44.71 93.8674 45.1443 93.5473 45.4645C93.2271 45.7846 92.7928 45.9645 92.3401 45.9645H45.3896C44.9368 45.9645 44.5026 45.7846 44.1824 45.4645C43.8622 45.1443 43.6824 44.71 43.6824 44.2572Z" stroke="url(#paint12_linear_18_2750)" stroke-width="1.87369"/>
<path d="M97.4621 160.352C97.4619 160.805 97.282 161.239 96.9619 161.559C96.6417 161.879 96.2076 162.059 95.7548 162.059H48.8044C48.3516 162.059 47.9174 161.88 47.5972 161.559C47.277 161.239 47.0972 160.805 47.0972 160.352C47.0972 159.899 47.277 159.465 47.5972 159.145C47.9174 158.825 48.3516 158.645 48.8044 158.645H95.7548C96.2076 158.645 96.6419 158.825 96.9621 159.145C97.2822 159.465 97.4621 159.899 97.4621 160.352Z" stroke="url(#paint13_linear_18_2750)" stroke-width="1.87369"/>
<path d="M38.561 51.0864C38.561 50.1432 39.3251 49.3792 40.2683 49.3792H92.3405C92.7933 49.3792 93.2276 49.559 93.5477 49.8792C93.8679 50.1994 94.0478 50.6336 94.0478 51.0864C94.0478 51.5392 93.8679 51.9735 93.5477 52.2936C93.2276 52.6138 92.7933 52.7937 92.3405 52.7937H40.2683C39.8155 52.7937 39.3813 52.6138 39.0611 52.2936C38.7409 51.9735 38.561 51.5392 38.561 51.0864Z" stroke="url(#paint14_linear_18_2750)" stroke-width="1.87369"/>
<path d="M102.584 153.523C102.584 153.976 102.404 154.41 102.084 154.73C101.764 155.051 101.329 155.231 100.877 155.231H48.8044C48.3516 155.231 47.9174 155.051 47.5972 154.731C47.277 154.41 47.0972 153.976 47.0972 153.523C47.0972 153.071 47.277 152.636 47.5972 152.316C47.9174 151.996 48.3516 151.816 48.8044 151.816H100.877C101.329 151.816 101.764 151.996 102.084 152.316C102.404 152.636 102.584 153.071 102.584 153.523Z" stroke="url(#paint15_linear_18_2750)" stroke-width="1.87369"/>
<path d="M33.4396 57.9152C33.4396 56.9719 34.2036 56.2079 35.1468 56.2079H92.3408C92.7936 56.2079 93.2279 56.3878 93.548 56.708C93.8682 57.0281 94.0481 57.4624 94.0481 57.9152C94.0481 58.368 93.8682 58.8022 93.548 59.1224C93.2279 59.4426 92.7936 59.6224 92.3408 59.6224H35.1468C34.694 59.6224 34.2598 59.4426 33.9396 59.1224C33.6194 58.8022 33.4396 58.368 33.4396 57.9152Z" stroke="url(#paint16_linear_18_2750)" stroke-width="1.87369"/>
<path d="M107.706 146.695C107.706 147.147 107.526 147.581 107.206 147.902C106.886 148.222 106.451 148.402 105.999 148.402H48.8048C48.3519 148.402 47.9176 148.222 47.5973 147.902C47.2771 147.581 47.0972 147.147 47.0972 146.694C47.0972 146.241 47.2771 145.807 47.5973 145.487C47.9176 145.166 48.3519 144.987 48.8048 144.987H105.999C106.452 144.987 106.886 145.167 107.206 145.487C107.526 145.807 107.706 146.242 107.706 146.695Z" stroke="url(#paint17_linear_18_2750)" stroke-width="1.87369"/>
<path d="M28.3167 64.7439C28.3168 64.2911 28.4968 63.8568 28.8171 63.5367C29.1374 63.2165 29.5717 63.0367 30.0246 63.0367L92.3404 63.0367C92.7849 63.0492 93.207 63.2345 93.5169 63.5533C93.8269 63.8721 94.0003 64.2993 94.0003 64.7439C94.0003 65.1886 93.8269 65.6157 93.5169 65.9346C93.207 66.2534 92.7849 66.4387 92.3404 66.4512H30.0246C29.8003 66.4513 29.5783 66.4072 29.371 66.3214C29.1638 66.2357 28.9755 66.1099 28.8169 65.9514C28.6583 65.7929 28.5325 65.6046 28.4467 65.3974C28.3608 65.1903 28.3167 64.9682 28.3167 64.7439Z" stroke="url(#paint18_linear_18_2750)" stroke-width="1.87369"/>
<path d="M112.827 139.864C112.827 140.808 112.063 141.572 111.12 141.572H48.8044C48.3516 141.572 47.9174 141.392 47.5972 141.072C47.277 140.751 47.0972 140.317 47.0972 139.864C47.0972 139.412 47.277 138.977 47.5972 138.657C47.9174 138.337 48.3516 138.157 48.8044 138.157H111.12C111.573 138.157 112.007 138.337 112.327 138.657C112.647 138.977 112.827 139.412 112.827 139.864Z" stroke="url(#paint19_linear_18_2750)" stroke-width="1.87369"/>
<path d="M23.1953 71.5735C23.1955 71.1207 23.3754 70.6866 23.6956 70.3665C24.0157 70.0463 24.4498 69.8664 24.9026 69.8662H92.3408C92.7853 69.8787 93.2074 70.0641 93.5174 70.3829C93.8274 70.7017 94.0008 71.1288 94.0008 71.5735C94.0008 72.0181 93.8274 72.4453 93.5174 72.7641C93.2074 73.0829 92.7853 73.2683 92.3408 73.2807H24.9026C24.4498 73.2807 24.0155 73.1009 23.6954 72.7807C23.3752 72.4605 23.1953 72.0263 23.1953 71.5735Z" stroke="url(#paint20_linear_18_2750)" stroke-width="1.87369"/>
<path d="M117.949 133.036C117.949 133.979 117.185 134.743 116.242 134.743H48.8044C48.3516 134.743 47.9174 134.563 47.5972 134.243C47.277 133.923 47.0972 133.488 47.0972 133.036C47.0972 132.583 47.277 132.148 47.5972 131.828C47.9174 131.508 48.3516 131.328 48.8044 131.328H116.242C117.185 131.328 117.949 132.093 117.949 133.036Z" stroke="url(#paint21_linear_18_2750)" stroke-width="1.87369"/>
<path d="M18.0723 78.4023C18.0724 77.9495 18.2524 77.5154 18.5725 77.1953C18.8926 76.8751 19.3268 76.6952 19.7795 76.695H92.3396C92.7841 76.7075 93.2062 76.8929 93.5161 77.2117C93.8261 77.5305 93.9995 77.9576 93.9995 78.4023C93.9995 78.8469 93.8261 79.2741 93.5161 79.5929C93.2062 79.9117 92.7841 80.0971 92.3396 80.1095H19.7795C19.3267 80.1095 18.8925 79.9297 18.5723 79.6095C18.2521 79.2893 18.0723 78.8551 18.0723 78.4023Z" stroke="url(#paint22_linear_18_2750)" stroke-width="1.87369"/>
<path d="M123.071 126.206C123.071 127.15 122.307 127.914 121.364 127.914H48.8044C48.3516 127.914 47.9174 127.734 47.5972 127.414C47.277 127.093 47.0972 126.659 47.0972 126.206C47.0972 125.754 47.277 125.319 47.5972 124.999C47.9174 124.679 48.3516 124.499 48.8044 124.499H121.364C122.307 124.499 123.071 125.264 123.071 126.206Z" stroke="url(#paint23_linear_18_2750)" stroke-width="1.87369"/>
<path d="M12.9509 85.2314C12.9511 84.7787 13.131 84.3446 13.4512 84.0244C13.7713 83.7043 14.2055 83.5243 14.6582 83.5242H92.34C92.787 83.533 93.2127 83.7169 93.5257 84.0361C93.8387 84.3554 94.014 84.7847 94.014 85.2318C94.014 85.6789 93.8387 86.1081 93.5257 86.4274C93.2127 86.7467 92.787 86.9305 92.34 86.9394H14.6582C14.2053 86.9392 13.7711 86.7592 13.4509 86.4389C13.1308 86.1186 12.9509 85.6843 12.9509 85.2314Z" stroke="url(#paint24_linear_18_2750)" stroke-width="1.87369"/>
<path d="M128.193 119.378C128.193 120.321 127.429 121.085 126.486 121.085H48.8044C48.5802 121.085 48.3582 121.041 48.1511 120.955C47.9439 120.869 47.7557 120.743 47.5972 120.585C47.4387 120.426 47.3129 120.238 47.2271 120.031C47.1413 119.824 47.0972 119.602 47.0972 119.378C47.0972 119.153 47.1413 118.931 47.2271 118.724C47.3129 118.517 47.4387 118.329 47.5972 118.17C47.7557 118.012 47.9439 117.886 48.1511 117.8C48.3582 117.715 48.5802 117.67 48.8044 117.67H126.486C127.429 117.67 128.193 118.435 128.193 119.378Z" stroke="url(#paint25_linear_18_2750)" stroke-width="1.87369"/>
<path d="M7.828 92.0614C7.828 91.1181 8.5927 90.3541 9.53526 90.3541H137.581C138.034 90.3541 138.468 90.534 138.789 90.8541C139.109 91.1743 139.289 91.6086 139.289 92.0614C139.289 92.5142 139.109 92.9484 138.789 93.2686C138.468 93.5887 138.034 93.7686 137.581 93.7686H9.53526C9.08252 93.7684 8.64838 93.5885 8.32825 93.2684C8.00811 92.9482 7.82818 92.5141 7.828 92.0614Z" stroke="url(#paint26_linear_18_2750)" stroke-width="1.87369"/>
<path d="M2.70813 98.8905C2.70813 97.9473 3.47283 97.1833 4.4154 97.1833H138.437C138.89 97.1833 139.324 97.3631 139.644 97.6833C139.964 98.0035 140.144 98.4377 140.144 98.8905C140.144 99.3433 139.964 99.7776 139.644 100.098C139.324 100.418 138.89 100.598 138.437 100.598H4.4154C3.96266 100.598 3.52851 100.418 3.20837 100.098C2.88824 99.7774 2.70831 99.3433 2.70813 98.8905Z" stroke="url(#paint27_linear_18_2750)" stroke-width="1.87369"/>
<path d="M1 105.719C1 104.776 1.7647 104.012 2.70726 104.012H134.168C134.621 104.012 135.055 104.192 135.375 104.512C135.695 104.832 135.875 105.266 135.875 105.719C135.875 106.172 135.695 106.606 135.375 106.927C135.055 107.247 134.621 107.427 134.168 107.427H2.70726C2.25452 107.426 1.82038 107.246 1.50024 106.926C1.18011 106.606 1.00018 106.172 1 105.719Z" stroke="url(#paint28_linear_18_2750)" stroke-width="1.87369"/>
<path d="M8.68286 112.548C8.68286 111.605 9.44756 110.841 10.3901 110.841H134.168C134.621 110.841 135.055 111.021 135.375 111.341C135.695 111.661 135.875 112.095 135.875 112.548C135.875 113.001 135.695 113.435 135.375 113.755C135.055 114.075 134.621 114.255 134.168 114.255H10.3901C9.93738 114.255 9.50324 114.075 9.1831 113.755C8.86297 113.435 8.68304 113.001 8.68286 112.548Z" stroke="url(#paint29_linear_18_2750)" stroke-width="1.87369"/>
</g>
<g opacity="0.4">
<path d="M77.827 3.28215C77.8272 2.82941 78.0071 2.39527 78.3273 2.07514C78.6474 1.755 79.0815 1.57507 79.5343 1.57489H85.5097C85.7379 1.56848 85.9652 1.6079 86.1779 1.69081C86.3906 1.77372 86.5846 1.89845 86.7483 2.05762C86.912 2.21679 87.0421 2.40717 87.131 2.61749C87.2198 2.82782 87.2656 3.05383 87.2656 3.28215C87.2656 3.51048 87.2198 3.73649 87.131 3.94682C87.0421 4.15715 86.912 4.34753 86.7483 4.50669C86.5846 4.66586 86.3906 4.79059 86.1779 4.8735C85.9652 4.95642 85.7379 4.99583 85.5097 4.98942H79.5343C79.0815 4.98942 78.6472 4.80955 78.3271 4.48937C78.0069 4.1692 77.827 3.73495 77.827 3.28215Z" stroke="url(#paint30_linear_18_2750)" stroke-width="0.208188"/>
<path d="M63.3153 201.327C63.3153 202.27 62.5513 203.035 61.6081 203.035H55.6326C55.1798 203.035 54.7454 202.855 54.4252 202.535C54.105 202.214 53.925 201.78 53.925 201.327C53.925 200.874 54.105 200.44 54.4252 200.12C54.7454 199.799 55.1798 199.62 55.6326 199.62H61.6081C62.5513 199.62 63.3153 200.384 63.3153 201.327Z" stroke="url(#paint31_linear_18_2750)" stroke-width="0.208188"/>
<path d="M70.1442 10.111C70.1443 9.6583 70.3243 9.22416 70.6444 8.90402C70.9645 8.58389 71.3987 8.40396 71.8514 8.40378H92.3393C92.7837 8.41627 93.2058 8.60161 93.5158 8.92042C93.8258 9.23924 93.9992 9.66637 93.9992 10.111C93.9992 10.5557 93.8258 10.9828 93.5158 11.3017C93.2058 11.6205 92.7837 11.8058 92.3393 11.8183H71.8514C71.3986 11.8183 70.9644 11.6384 70.6442 11.3183C70.324 10.9981 70.1442 10.5638 70.1442 10.111Z" stroke="url(#paint32_linear_18_2750)" stroke-width="0.208188"/>
<path d="M70.9989 194.498C70.9989 195.441 70.2348 196.205 69.2916 196.205H48.8044C48.3516 196.205 47.9174 196.025 47.5972 195.705C47.277 195.385 47.0972 194.951 47.0972 194.498C47.0972 194.045 47.277 193.611 47.5972 193.291C47.9174 192.971 48.3516 192.791 48.8044 192.791H69.2916C70.2348 192.791 70.9989 193.555 70.9989 194.498Z" stroke="url(#paint33_linear_18_2750)" stroke-width="0.208188"/>
<path d="M65.0227 16.9406C65.0229 16.4879 65.2028 16.0537 65.5229 15.7336C65.8431 15.4134 66.2772 15.2335 66.73 15.2333H92.3396C92.7841 15.2458 93.2062 15.4312 93.5162 15.75C93.8261 16.0688 93.9996 16.4959 93.9996 16.9406C93.9996 17.3853 93.8261 17.8124 93.5162 18.1312C93.2062 18.45 92.7841 18.6354 92.3396 18.6479H66.73C66.2772 18.6479 65.8429 18.468 65.5227 18.1478C65.2026 17.8276 65.0227 17.3934 65.0227 16.9406Z" stroke="url(#paint34_linear_18_2750)" stroke-width="0.208188"/>
<path d="M76.1206 187.668C76.1206 188.612 75.3566 189.376 74.4134 189.376H48.8044C48.3516 189.376 47.9174 189.196 47.5972 188.876C47.277 188.555 47.0972 188.121 47.0972 187.668C47.0972 187.216 47.277 186.781 47.5972 186.461C47.9174 186.141 48.3516 185.961 48.8044 185.961H74.4134C75.3566 185.961 76.1206 186.726 76.1206 187.668Z" stroke="url(#paint35_linear_18_2750)" stroke-width="0.208188"/>
<path d="M59.9014 23.7694C59.9015 23.3166 60.0815 22.8825 60.4016 22.5623C60.7218 22.2422 61.1559 22.0623 61.6086 22.0621H92.34C92.7845 22.0746 93.2066 22.2599 93.5166 22.5787C93.8266 22.8976 94 23.3247 94 23.7694C94 24.214 93.8266 24.6412 93.5166 24.96C93.2066 25.2788 92.7845 25.4641 92.34 25.4766H61.6086C61.1558 25.4766 60.7216 25.2968 60.4014 24.9766C60.0812 24.6564 59.9014 24.2222 59.9014 23.7694Z" stroke="url(#paint36_linear_18_2750)" stroke-width="0.208188"/>
<path d="M81.2424 180.84C81.2424 181.783 80.4784 182.547 79.5352 182.547H48.8044C48.3516 182.547 47.9174 182.367 47.5972 182.047C47.277 181.727 47.0972 181.293 47.0972 180.84C47.0972 180.387 47.277 179.953 47.5972 179.632C47.9174 179.312 48.3516 179.132 48.8044 179.132H79.5352C80.4784 179.132 81.2424 179.897 81.2424 180.84Z" stroke="url(#paint37_linear_18_2750)" stroke-width="0.208188"/>
<path d="M54.78 30.5988C54.78 29.6556 55.5441 28.8909 56.4873 28.8909H92.3405C92.7875 28.8997 93.2132 29.0836 93.5262 29.4028C93.8392 29.7221 94.0145 30.1514 94.0145 30.5985C94.0145 31.0456 93.8392 31.4748 93.5262 31.7941C93.2132 32.1134 92.7875 32.2972 92.3405 32.3061H56.4873C56.0345 32.3061 55.6002 32.1262 55.2801 31.806C54.9599 31.4858 54.78 31.0516 54.78 30.5988Z" stroke="url(#paint38_linear_18_2750)" stroke-width="0.208188"/>
<path d="M86.3649 174.01C86.3649 174.954 85.6002 175.718 84.657 175.718H48.8044C48.3516 175.718 47.9174 175.538 47.5972 175.218C47.277 174.898 47.0972 174.463 47.0972 174.01C47.0972 173.558 47.277 173.123 47.5972 172.803C47.9174 172.483 48.3516 172.303 48.8044 172.303H84.657C85.6002 172.303 86.3649 173.068 86.3649 174.01Z" stroke="url(#paint39_linear_18_2750)" stroke-width="0.208188"/>
<path d="M49.657 37.4277C49.657 36.4845 50.421 35.7204 51.3642 35.7204H92.3392C92.792 35.7204 93.2263 35.9003 93.5465 36.2205C93.8666 36.5406 94.0465 36.9749 94.0465 37.4277C94.0465 37.8805 93.8666 38.3147 93.5465 38.6349C93.2263 38.9551 92.792 39.135 92.3392 39.135H51.3642C50.9114 39.135 50.4772 38.9551 50.157 38.6349C49.8369 38.3147 49.657 37.8805 49.657 37.4277Z" stroke="url(#paint40_linear_18_2750)" stroke-width="0.208188"/>
<path d="M91.4867 167.181C91.4865 167.634 91.3066 168.068 90.9864 168.388C90.6663 168.708 90.2322 168.888 89.7794 168.888H48.8044C48.3516 168.888 47.9174 168.708 47.5972 168.388C47.277 168.068 47.0972 167.634 47.0972 167.181C47.0972 166.728 47.277 166.294 47.5972 165.974C47.9174 165.654 48.3516 165.474 48.8044 165.474H89.7794C90.2322 165.474 90.6665 165.654 90.9866 165.974C91.3068 166.294 91.4867 166.728 91.4867 167.181Z" stroke="url(#paint41_linear_18_2750)" stroke-width="0.208188"/>
<path d="M43.6824 44.2572C43.6824 43.314 44.4464 42.55 45.3896 42.55H92.3401C92.7928 42.55 93.2271 42.7299 93.5473 43.05C93.8674 43.3702 94.0473 43.8045 94.0473 44.2572C94.0473 44.71 93.8674 45.1443 93.5473 45.4645C93.2271 45.7846 92.7928 45.9645 92.3401 45.9645H45.3896C44.9368 45.9645 44.5026 45.7846 44.1824 45.4645C43.8622 45.1443 43.6824 44.71 43.6824 44.2572Z" stroke="url(#paint42_linear_18_2750)" stroke-width="0.208188"/>
<path d="M97.4621 160.352C97.4619 160.805 97.282 161.239 96.9619 161.559C96.6417 161.879 96.2076 162.059 95.7548 162.059H48.8044C48.3516 162.059 47.9174 161.88 47.5972 161.559C47.277 161.239 47.0972 160.805 47.0972 160.352C47.0972 159.899 47.277 159.465 47.5972 159.145C47.9174 158.825 48.3516 158.645 48.8044 158.645H95.7548C96.2076 158.645 96.6419 158.825 96.9621 159.145C97.2822 159.465 97.4621 159.899 97.4621 160.352Z" stroke="url(#paint43_linear_18_2750)" stroke-width="0.208188"/>
<path d="M38.561 51.0864C38.561 50.1432 39.3251 49.3792 40.2683 49.3792H92.3405C92.7933 49.3792 93.2276 49.559 93.5477 49.8792C93.8679 50.1994 94.0478 50.6336 94.0478 51.0864C94.0478 51.5392 93.8679 51.9735 93.5477 52.2936C93.2276 52.6138 92.7933 52.7937 92.3405 52.7937H40.2683C39.8155 52.7937 39.3813 52.6138 39.0611 52.2936C38.7409 51.9735 38.561 51.5392 38.561 51.0864Z" stroke="url(#paint44_linear_18_2750)" stroke-width="0.208188"/>
<path d="M102.584 153.523C102.584 153.976 102.404 154.41 102.084 154.73C101.764 155.051 101.329 155.231 100.877 155.231H48.8044C48.3516 155.231 47.9174 155.051 47.5972 154.731C47.277 154.41 47.0972 153.976 47.0972 153.523C47.0972 153.071 47.277 152.636 47.5972 152.316C47.9174 151.996 48.3516 151.816 48.8044 151.816H100.877C101.329 151.816 101.764 151.996 102.084 152.316C102.404 152.636 102.584 153.071 102.584 153.523Z" stroke="url(#paint45_linear_18_2750)" stroke-width="0.208188"/>
<path d="M33.4396 57.9152C33.4396 56.9719 34.2036 56.2079 35.1468 56.2079H92.3408C92.7936 56.2079 93.2279 56.3878 93.548 56.708C93.8682 57.0281 94.0481 57.4624 94.0481 57.9152C94.0481 58.368 93.8682 58.8022 93.548 59.1224C93.2279 59.4426 92.7936 59.6224 92.3408 59.6224H35.1468C34.694 59.6224 34.2598 59.4426 33.9396 59.1224C33.6194 58.8022 33.4396 58.368 33.4396 57.9152Z" stroke="url(#paint46_linear_18_2750)" stroke-width="0.208188"/>
<path d="M107.706 146.695C107.706 147.147 107.526 147.581 107.206 147.902C106.886 148.222 106.451 148.402 105.999 148.402H48.8048C48.3519 148.402 47.9176 148.222 47.5973 147.902C47.2771 147.581 47.0972 147.147 47.0972 146.694C47.0972 146.241 47.2771 145.807 47.5973 145.487C47.9176 145.166 48.3519 144.987 48.8048 144.987H105.999C106.452 144.987 106.886 145.167 107.206 145.487C107.526 145.807 107.706 146.242 107.706 146.695Z" stroke="url(#paint47_linear_18_2750)" stroke-width="0.208188"/>
<path d="M28.3167 64.7439C28.3168 64.2911 28.4968 63.8568 28.8171 63.5367C29.1374 63.2165 29.5717 63.0367 30.0246 63.0367L92.3404 63.0367C92.7849 63.0492 93.207 63.2345 93.5169 63.5533C93.8269 63.8721 94.0003 64.2993 94.0003 64.7439C94.0003 65.1886 93.8269 65.6157 93.5169 65.9346C93.207 66.2534 92.7849 66.4387 92.3404 66.4512H30.0246C29.8003 66.4513 29.5783 66.4072 29.371 66.3214C29.1638 66.2357 28.9755 66.1099 28.8169 65.9514C28.6583 65.7929 28.5325 65.6046 28.4467 65.3974C28.3608 65.1903 28.3167 64.9682 28.3167 64.7439Z" stroke="url(#paint48_linear_18_2750)" stroke-width="0.208188"/>
<path d="M112.827 139.864C112.827 140.808 112.063 141.572 111.12 141.572H48.8044C48.3516 141.572 47.9174 141.392 47.5972 141.072C47.277 140.751 47.0972 140.317 47.0972 139.864C47.0972 139.412 47.277 138.977 47.5972 138.657C47.9174 138.337 48.3516 138.157 48.8044 138.157H111.12C111.573 138.157 112.007 138.337 112.327 138.657C112.647 138.977 112.827 139.412 112.827 139.864Z" stroke="url(#paint49_linear_18_2750)" stroke-width="0.208188"/>
<path d="M23.1953 71.5735C23.1955 71.1207 23.3754 70.6866 23.6956 70.3665C24.0157 70.0463 24.4498 69.8664 24.9026 69.8662H92.3408C92.7853 69.8787 93.2074 70.0641 93.5174 70.3829C93.8274 70.7017 94.0008 71.1288 94.0008 71.5735C94.0008 72.0181 93.8274 72.4453 93.5174 72.7641C93.2074 73.0829 92.7853 73.2683 92.3408 73.2807H24.9026C24.4498 73.2807 24.0155 73.1009 23.6954 72.7807C23.3752 72.4605 23.1953 72.0263 23.1953 71.5735Z" stroke="url(#paint50_linear_18_2750)" stroke-width="0.208188"/>
<path d="M117.949 133.036C117.949 133.979 117.185 134.743 116.242 134.743H48.8044C48.3516 134.743 47.9174 134.563 47.5972 134.243C47.277 133.923 47.0972 133.488 47.0972 133.036C47.0972 132.583 47.277 132.148 47.5972 131.828C47.9174 131.508 48.3516 131.328 48.8044 131.328H116.242C117.185 131.328 117.949 132.093 117.949 133.036Z" stroke="url(#paint51_linear_18_2750)" stroke-width="0.208188"/>
<path d="M18.0723 78.4023C18.0724 77.9495 18.2524 77.5154 18.5725 77.1953C18.8926 76.8751 19.3268 76.6952 19.7795 76.695H92.3396C92.7841 76.7075 93.2062 76.8929 93.5161 77.2117C93.8261 77.5305 93.9995 77.9576 93.9995 78.4023C93.9995 78.8469 93.8261 79.2741 93.5161 79.5929C93.2062 79.9117 92.7841 80.0971 92.3396 80.1095H19.7795C19.3267 80.1095 18.8925 79.9297 18.5723 79.6095C18.2521 79.2893 18.0723 78.8551 18.0723 78.4023Z" stroke="url(#paint52_linear_18_2750)" stroke-width="0.208188"/>
<path d="M123.071 126.206C123.071 127.15 122.307 127.914 121.364 127.914H48.8044C48.3516 127.914 47.9174 127.734 47.5972 127.414C47.277 127.093 47.0972 126.659 47.0972 126.206C47.0972 125.754 47.277 125.319 47.5972 124.999C47.9174 124.679 48.3516 124.499 48.8044 124.499H121.364C122.307 124.499 123.071 125.264 123.071 126.206Z" stroke="url(#paint53_linear_18_2750)" stroke-width="0.208188"/>
<path d="M12.9509 85.2314C12.9511 84.7787 13.131 84.3446 13.4512 84.0244C13.7713 83.7043 14.2055 83.5243 14.6582 83.5242H92.34C92.787 83.533 93.2127 83.7169 93.5257 84.0361C93.8387 84.3554 94.014 84.7847 94.014 85.2318C94.014 85.6789 93.8387 86.1081 93.5257 86.4274C93.2127 86.7467 92.787 86.9305 92.34 86.9394H14.6582C14.2053 86.9392 13.7711 86.7592 13.4509 86.4389C13.1308 86.1186 12.9509 85.6843 12.9509 85.2314Z" stroke="url(#paint54_linear_18_2750)" stroke-width="0.208188"/>
<path d="M128.193 119.378C128.193 120.321 127.429 121.085 126.486 121.085H48.8044C48.5802 121.085 48.3582 121.041 48.1511 120.955C47.9439 120.869 47.7557 120.743 47.5972 120.585C47.4387 120.426 47.3129 120.238 47.2271 120.031C47.1413 119.824 47.0972 119.602 47.0972 119.378C47.0972 119.153 47.1413 118.931 47.2271 118.724C47.3129 118.517 47.4387 118.329 47.5972 118.17C47.7557 118.012 47.9439 117.886 48.1511 117.8C48.3582 117.715 48.5802 117.67 48.8044 117.67H126.486C127.429 117.67 128.193 118.435 128.193 119.378Z" stroke="url(#paint55_linear_18_2750)" stroke-width="0.208188"/>
<path d="M7.828 92.0614C7.828 91.1181 8.5927 90.3541 9.53526 90.3541H137.581C138.034 90.3541 138.468 90.534 138.789 90.8541C139.109 91.1743 139.289 91.6086 139.289 92.0614C139.289 92.5142 139.109 92.9484 138.789 93.2686C138.468 93.5887 138.034 93.7686 137.581 93.7686H9.53526C9.08252 93.7684 8.64838 93.5885 8.32825 93.2684C8.00811 92.9482 7.82818 92.5141 7.828 92.0614Z" stroke="url(#paint56_linear_18_2750)" stroke-width="0.208188"/>
<path d="M2.70813 98.8905C2.70813 97.9473 3.47283 97.1833 4.4154 97.1833H138.437C138.89 97.1833 139.324 97.3631 139.644 97.6833C139.964 98.0035 140.144 98.4377 140.144 98.8905C140.144 99.3433 139.964 99.7776 139.644 100.098C139.324 100.418 138.89 100.598 138.437 100.598H4.4154C3.96266 100.598 3.52851 100.418 3.20837 100.098C2.88824 99.7774 2.70831 99.3433 2.70813 98.8905Z" stroke="url(#paint57_linear_18_2750)" stroke-width="0.208188"/>
<path d="M1 105.719C1 104.776 1.7647 104.012 2.70726 104.012H134.168C134.621 104.012 135.055 104.192 135.375 104.512C135.695 104.832 135.875 105.266 135.875 105.719C135.875 106.172 135.695 106.606 135.375 106.927C135.055 107.247 134.621 107.427 134.168 107.427H2.70726C2.25452 107.426 1.82038 107.246 1.50024 106.926C1.18011 106.606 1.00018 106.172 1 105.719Z" stroke="url(#paint58_linear_18_2750)" stroke-width="0.208188"/>
<path d="M8.68286 112.548C8.68286 111.605 9.44756 110.841 10.3901 110.841H134.168C134.621 110.841 135.055 111.021 135.375 111.341C135.695 111.661 135.875 112.095 135.875 112.548C135.875 113.001 135.695 113.435 135.375 113.755C135.055 114.075 134.621 114.255 134.168 114.255H10.3901C9.93738 114.255 9.50324 114.075 9.1831 113.755C8.86297 113.435 8.68304 113.001 8.68286 112.548Z" stroke="url(#paint59_linear_18_2750)" stroke-width="0.208188"/>
</g>
<path d="M77.827 3.28215C77.8272 2.82941 78.0071 2.39527 78.3273 2.07514C78.6474 1.755 79.0815 1.57507 79.5343 1.57489H85.5097C85.7379 1.56848 85.9652 1.6079 86.1779 1.69081C86.3906 1.77372 86.5846 1.89845 86.7483 2.05762C86.912 2.21679 87.0421 2.40717 87.131 2.61749C87.2198 2.82782 87.2656 3.05383 87.2656 3.28215C87.2656 3.51048 87.2198 3.73649 87.131 3.94682C87.0421 4.15715 86.912 4.34753 86.7483 4.50669C86.5846 4.66586 86.3906 4.79059 86.1779 4.8735C85.9652 4.95642 85.7379 4.99583 85.5097 4.98942H79.5343C79.0815 4.98942 78.6472 4.80955 78.3271 4.48937C78.0069 4.1692 77.827 3.73495 77.827 3.28215Z" stroke="url(#paint60_linear_18_2750)" stroke-width="0.832753"/>
<path d="M63.3153 201.327C63.3153 202.27 62.5513 203.035 61.6081 203.035H55.6326C55.1798 203.035 54.7454 202.855 54.4252 202.535C54.105 202.214 53.925 201.78 53.925 201.327C53.925 200.874 54.105 200.44 54.4252 200.12C54.7454 199.799 55.1798 199.62 55.6326 199.62H61.6081C62.5513 199.62 63.3153 200.384 63.3153 201.327Z" stroke="url(#paint61_linear_18_2750)" stroke-width="0.832753"/>
<path d="M70.1442 10.111C70.1443 9.6583 70.3243 9.22416 70.6444 8.90402C70.9645 8.58389 71.3987 8.40396 71.8514 8.40378H92.3393C92.7837 8.41627 93.2058 8.60161 93.5158 8.92042C93.8258 9.23924 93.9992 9.66637 93.9992 10.111C93.9992 10.5557 93.8258 10.9828 93.5158 11.3017C93.2058 11.6205 92.7837 11.8058 92.3393 11.8183H71.8514C71.3986 11.8183 70.9644 11.6384 70.6442 11.3183C70.324 10.9981 70.1442 10.5638 70.1442 10.111Z" stroke="url(#paint62_linear_18_2750)" stroke-width="0.832753"/>
<path d="M70.9989 194.498C70.9989 195.441 70.2348 196.205 69.2916 196.205H48.8044C48.3516 196.205 47.9174 196.025 47.5972 195.705C47.277 195.385 47.0972 194.951 47.0972 194.498C47.0972 194.045 47.277 193.611 47.5972 193.291C47.9174 192.971 48.3516 192.791 48.8044 192.791H69.2916C70.2348 192.791 70.9989 193.555 70.9989 194.498Z" stroke="url(#paint63_linear_18_2750)" stroke-width="0.832753"/>
<path d="M65.0227 16.9406C65.0229 16.4879 65.2028 16.0537 65.5229 15.7336C65.8431 15.4134 66.2772 15.2335 66.73 15.2333H92.3396C92.7841 15.2458 93.2062 15.4312 93.5162 15.75C93.8261 16.0688 93.9996 16.4959 93.9996 16.9406C93.9996 17.3853 93.8261 17.8124 93.5162 18.1312C93.2062 18.45 92.7841 18.6354 92.3396 18.6479H66.73C66.2772 18.6479 65.8429 18.468 65.5227 18.1478C65.2026 17.8276 65.0227 17.3934 65.0227 16.9406Z" stroke="url(#paint64_linear_18_2750)" stroke-width="0.832753"/>
<path d="M76.1206 187.668C76.1206 188.612 75.3566 189.376 74.4134 189.376H48.8044C48.3516 189.376 47.9174 189.196 47.5972 188.876C47.277 188.555 47.0972 188.121 47.0972 187.668C47.0972 187.216 47.277 186.781 47.5972 186.461C47.9174 186.141 48.3516 185.961 48.8044 185.961H74.4134C75.3566 185.961 76.1206 186.726 76.1206 187.668Z" stroke="url(#paint65_linear_18_2750)" stroke-width="0.832753"/>
<path d="M59.9014 23.7694C59.9015 23.3166 60.0815 22.8825 60.4016 22.5623C60.7218 22.2422 61.1559 22.0623 61.6086 22.0621H92.34C92.7845 22.0746 93.2066 22.2599 93.5166 22.5787C93.8266 22.8976 94 23.3247 94 23.7694C94 24.214 93.8266 24.6412 93.5166 24.96C93.2066 25.2788 92.7845 25.4641 92.34 25.4766H61.6086C61.1558 25.4766 60.7216 25.2968 60.4014 24.9766C60.0812 24.6564 59.9014 24.2222 59.9014 23.7694Z" stroke="url(#paint66_linear_18_2750)" stroke-width="0.832753"/>
<path d="M81.2424 180.84C81.2424 181.783 80.4784 182.547 79.5352 182.547H48.8044C48.3516 182.547 47.9174 182.367 47.5972 182.047C47.277 181.727 47.0972 181.293 47.0972 180.84C47.0972 180.387 47.277 179.953 47.5972 179.632C47.9174 179.312 48.3516 179.132 48.8044 179.132H79.5352C80.4784 179.132 81.2424 179.897 81.2424 180.84Z" stroke="url(#paint67_linear_18_2750)" stroke-width="0.832753"/>
<path d="M54.78 30.5988C54.78 29.6556 55.5441 28.8909 56.4873 28.8909H92.3405C92.7875 28.8997 93.2132 29.0836 93.5262 29.4028C93.8392 29.7221 94.0145 30.1514 94.0145 30.5985C94.0145 31.0456 93.8392 31.4748 93.5262 31.7941C93.2132 32.1134 92.7875 32.2972 92.3405 32.3061H56.4873C56.0345 32.3061 55.6002 32.1262 55.2801 31.806C54.9599 31.4858 54.78 31.0516 54.78 30.5988Z" stroke="url(#paint68_linear_18_2750)" stroke-width="0.832753"/>
<path d="M86.3649 174.01C86.3649 174.954 85.6002 175.718 84.657 175.718H48.8044C48.3516 175.718 47.9174 175.538 47.5972 175.218C47.277 174.898 47.0972 174.463 47.0972 174.01C47.0972 173.558 47.277 173.123 47.5972 172.803C47.9174 172.483 48.3516 172.303 48.8044 172.303H84.657C85.6002 172.303 86.3649 173.068 86.3649 174.01Z" stroke="url(#paint69_linear_18_2750)" stroke-width="0.832753"/>
<path d="M49.657 37.4277C49.657 36.4845 50.421 35.7204 51.3642 35.7204H92.3392C92.792 35.7204 93.2263 35.9003 93.5465 36.2205C93.8666 36.5406 94.0465 36.9749 94.0465 37.4277C94.0465 37.8805 93.8666 38.3147 93.5465 38.6349C93.2263 38.9551 92.792 39.135 92.3392 39.135H51.3642C50.9114 39.135 50.4772 38.9551 50.157 38.6349C49.8369 38.3147 49.657 37.8805 49.657 37.4277Z" stroke="url(#paint70_linear_18_2750)" stroke-width="0.832753"/>
<path d="M91.4867 167.181C91.4865 167.634 91.3066 168.068 90.9864 168.388C90.6663 168.708 90.2322 168.888 89.7794 168.888H48.8044C48.3516 168.888 47.9174 168.708 47.5972 168.388C47.277 168.068 47.0972 167.634 47.0972 167.181C47.0972 166.728 47.277 166.294 47.5972 165.974C47.9174 165.654 48.3516 165.474 48.8044 165.474H89.7794C90.2322 165.474 90.6665 165.654 90.9866 165.974C91.3068 166.294 91.4867 166.728 91.4867 167.181Z" stroke="url(#paint71_linear_18_2750)" stroke-width="0.832753"/>
<path d="M43.6824 44.2572C43.6824 43.314 44.4464 42.55 45.3896 42.55H92.3401C92.7928 42.55 93.2271 42.7299 93.5473 43.05C93.8674 43.3702 94.0473 43.8045 94.0473 44.2572C94.0473 44.71 93.8674 45.1443 93.5473 45.4645C93.2271 45.7846 92.7928 45.9645 92.3401 45.9645H45.3896C44.9368 45.9645 44.5026 45.7846 44.1824 45.4645C43.8622 45.1443 43.6824 44.71 43.6824 44.2572Z" stroke="url(#paint72_linear_18_2750)" stroke-width="0.832753"/>
<path d="M97.4621 160.352C97.4619 160.805 97.282 161.239 96.9619 161.559C96.6417 161.879 96.2076 162.059 95.7548 162.059H48.8044C48.3516 162.059 47.9174 161.88 47.5972 161.559C47.277 161.239 47.0972 160.805 47.0972 160.352C47.0972 159.899 47.277 159.465 47.5972 159.145C47.9174 158.825 48.3516 158.645 48.8044 158.645H95.7548C96.2076 158.645 96.6419 158.825 96.9621 159.145C97.2822 159.465 97.4621 159.899 97.4621 160.352Z" stroke="url(#paint73_linear_18_2750)" stroke-width="0.832753"/>
<path d="M38.561 51.0864C38.561 50.1432 39.3251 49.3792 40.2683 49.3792H92.3405C92.7933 49.3792 93.2276 49.559 93.5477 49.8792C93.8679 50.1994 94.0478 50.6336 94.0478 51.0864C94.0478 51.5392 93.8679 51.9735 93.5477 52.2936C93.2276 52.6138 92.7933 52.7937 92.3405 52.7937H40.2683C39.8155 52.7937 39.3813 52.6138 39.0611 52.2936C38.7409 51.9735 38.561 51.5392 38.561 51.0864Z" stroke="url(#paint74_linear_18_2750)" stroke-width="0.832753"/>
<path d="M102.584 153.523C102.584 153.976 102.404 154.41 102.084 154.73C101.764 155.051 101.329 155.231 100.877 155.231H48.8044C48.3516 155.231 47.9174 155.051 47.5972 154.731C47.277 154.41 47.0972 153.976 47.0972 153.523C47.0972 153.071 47.277 152.636 47.5972 152.316C47.9174 151.996 48.3516 151.816 48.8044 151.816H100.877C101.329 151.816 101.764 151.996 102.084 152.316C102.404 152.636 102.584 153.071 102.584 153.523Z" stroke="url(#paint75_linear_18_2750)" stroke-width="0.832753"/>
<path d="M33.4396 57.9152C33.4396 56.9719 34.2036 56.2079 35.1468 56.2079H92.3408C92.7936 56.2079 93.2279 56.3878 93.548 56.708C93.8682 57.0281 94.0481 57.4624 94.0481 57.9152C94.0481 58.368 93.8682 58.8022 93.548 59.1224C93.2279 59.4426 92.7936 59.6224 92.3408 59.6224H35.1468C34.694 59.6224 34.2598 59.4426 33.9396 59.1224C33.6194 58.8022 33.4396 58.368 33.4396 57.9152Z" stroke="url(#paint76_linear_18_2750)" stroke-width="0.832753"/>
<path d="M107.706 146.695C107.706 147.147 107.526 147.581 107.206 147.902C106.886 148.222 106.451 148.402 105.999 148.402H48.8048C48.3519 148.402 47.9176 148.222 47.5973 147.902C47.2771 147.581 47.0972 147.147 47.0972 146.694C47.0972 146.241 47.2771 145.807 47.5973 145.487C47.9176 145.166 48.3519 144.987 48.8048 144.987H105.999C106.452 144.987 106.886 145.167 107.206 145.487C107.526 145.807 107.706 146.242 107.706 146.695Z" stroke="url(#paint77_linear_18_2750)" stroke-width="0.832753"/>
<path d="M28.3167 64.7439C28.3168 64.2911 28.4968 63.8568 28.8171 63.5367C29.1374 63.2165 29.5717 63.0367 30.0246 63.0367L92.3404 63.0367C92.7849 63.0492 93.207 63.2345 93.5169 63.5533C93.8269 63.8721 94.0003 64.2993 94.0003 64.7439C94.0003 65.1886 93.8269 65.6157 93.5169 65.9346C93.207 66.2534 92.7849 66.4387 92.3404 66.4512H30.0246C29.8003 66.4513 29.5783 66.4072 29.371 66.3214C29.1638 66.2357 28.9755 66.1099 28.8169 65.9514C28.6583 65.7929 28.5325 65.6046 28.4467 65.3974C28.3608 65.1903 28.3167 64.9682 28.3167 64.7439Z" stroke="url(#paint78_linear_18_2750)" stroke-width="0.832753"/>
<path d="M112.827 139.864C112.827 140.808 112.063 141.572 111.12 141.572H48.8044C48.3516 141.572 47.9174 141.392 47.5972 141.072C47.277 140.751 47.0972 140.317 47.0972 139.864C47.0972 139.412 47.277 138.977 47.5972 138.657C47.9174 138.337 48.3516 138.157 48.8044 138.157H111.12C111.573 138.157 112.007 138.337 112.327 138.657C112.647 138.977 112.827 139.412 112.827 139.864Z" stroke="url(#paint79_linear_18_2750)" stroke-width="0.832753"/>
<path d="M23.1953 71.5735C23.1955 71.1207 23.3754 70.6866 23.6956 70.3665C24.0157 70.0463 24.4498 69.8664 24.9026 69.8662H92.3408C92.7853 69.8787 93.2074 70.0641 93.5174 70.3829C93.8274 70.7017 94.0008 71.1288 94.0008 71.5735C94.0008 72.0181 93.8274 72.4453 93.5174 72.7641C93.2074 73.0829 92.7853 73.2683 92.3408 73.2807H24.9026C24.4498 73.2807 24.0155 73.1009 23.6954 72.7807C23.3752 72.4605 23.1953 72.0263 23.1953 71.5735Z" stroke="url(#paint80_linear_18_2750)" stroke-width="0.832753"/>
<path d="M117.949 133.036C117.949 133.979 117.185 134.743 116.242 134.743H48.8044C48.3516 134.743 47.9174 134.563 47.5972 134.243C47.277 133.923 47.0972 133.488 47.0972 133.036C47.0972 132.583 47.277 132.148 47.5972 131.828C47.9174 131.508 48.3516 131.328 48.8044 131.328H116.242C117.185 131.328 117.949 132.093 117.949 133.036Z" stroke="url(#paint81_linear_18_2750)" stroke-width="0.832753"/>
<path d="M18.0723 78.4023C18.0724 77.9495 18.2524 77.5154 18.5725 77.1953C18.8926 76.8751 19.3268 76.6952 19.7795 76.695H92.3396C92.7841 76.7075 93.2062 76.8929 93.5161 77.2117C93.8261 77.5305 93.9995 77.9576 93.9995 78.4023C93.9995 78.8469 93.8261 79.2741 93.5161 79.5929C93.2062 79.9117 92.7841 80.0971 92.3396 80.1095H19.7795C19.3267 80.1095 18.8925 79.9297 18.5723 79.6095C18.2521 79.2893 18.0723 78.8551 18.0723 78.4023Z" stroke="url(#paint82_linear_18_2750)" stroke-width="0.832753"/>
<path d="M123.071 126.206C123.071 127.15 122.307 127.914 121.364 127.914H48.8044C48.3516 127.914 47.9174 127.734 47.5972 127.414C47.277 127.093 47.0972 126.659 47.0972 126.206C47.0972 125.754 47.277 125.319 47.5972 124.999C47.9174 124.679 48.3516 124.499 48.8044 124.499H121.364C122.307 124.499 123.071 125.264 123.071 126.206Z" stroke="url(#paint83_linear_18_2750)" stroke-width="0.832753"/>
<path d="M12.9509 85.2314C12.9511 84.7787 13.131 84.3446 13.4512 84.0244C13.7713 83.7043 14.2055 83.5243 14.6582 83.5242H92.34C92.787 83.533 93.2127 83.7169 93.5257 84.0361C93.8387 84.3554 94.014 84.7847 94.014 85.2318C94.014 85.6789 93.8387 86.1081 93.5257 86.4274C93.2127 86.7467 92.787 86.9305 92.34 86.9394H14.6582C14.2053 86.9392 13.7711 86.7592 13.4509 86.4389C13.1308 86.1186 12.9509 85.6843 12.9509 85.2314Z" stroke="url(#paint84_linear_18_2750)" stroke-width="0.832753"/>
<path d="M128.193 119.378C128.193 120.321 127.429 121.085 126.486 121.085H48.8044C48.5802 121.085 48.3582 121.041 48.1511 120.955C47.9439 120.869 47.7557 120.743 47.5972 120.585C47.4387 120.426 47.3129 120.238 47.2271 120.031C47.1413 119.824 47.0972 119.602 47.0972 119.378C47.0972 119.153 47.1413 118.931 47.2271 118.724C47.3129 118.517 47.4387 118.329 47.5972 118.17C47.7557 118.012 47.9439 117.886 48.1511 117.8C48.3582 117.715 48.5802 117.67 48.8044 117.67H126.486C127.429 117.67 128.193 118.435 128.193 119.378Z" stroke="url(#paint85_linear_18_2750)" stroke-width="0.832753"/>
<path d="M7.828 92.0614C7.828 91.1181 8.5927 90.3541 9.53526 90.3541H137.581C138.034 90.3541 138.468 90.534 138.789 90.8541C139.109 91.1743 139.289 91.6086 139.289 92.0614C139.289 92.5142 139.109 92.9484 138.789 93.2686C138.468 93.5887 138.034 93.7686 137.581 93.7686H9.53526C9.08252 93.7684 8.64838 93.5885 8.32825 93.2684C8.00811 92.9482 7.82818 92.5141 7.828 92.0614Z" stroke="url(#paint86_linear_18_2750)" stroke-width="0.832753"/>
<path d="M2.70813 98.8905C2.70813 97.9473 3.47283 97.1833 4.4154 97.1833H138.437C138.89 97.1833 139.324 97.3631 139.644 97.6833C139.964 98.0035 140.144 98.4377 140.144 98.8905C140.144 99.3433 139.964 99.7776 139.644 100.098C139.324 100.418 138.89 100.598 138.437 100.598H4.4154C3.96266 100.598 3.52851 100.418 3.20837 100.098C2.88824 99.7774 2.70831 99.3433 2.70813 98.8905Z" stroke="url(#paint87_linear_18_2750)" stroke-width="0.832753"/>
<path d="M1 105.719C1 104.776 1.7647 104.012 2.70726 104.012H134.168C134.621 104.012 135.055 104.192 135.375 104.512C135.695 104.832 135.875 105.266 135.875 105.719C135.875 106.172 135.695 106.606 135.375 106.927C135.055 107.247 134.621 107.427 134.168 107.427H2.70726C2.25452 107.426 1.82038 107.246 1.50024 106.926C1.18011 106.606 1.00018 106.172 1 105.719Z" stroke="url(#paint88_linear_18_2750)" stroke-width="0.832753"/>
<path d="M8.68286 112.548C8.68286 111.605 9.44756 110.841 10.3901 110.841H134.168C134.621 110.841 135.055 111.021 135.375 111.341C135.695 111.661 135.875 112.095 135.875 112.548C135.875 113.001 135.695 113.435 135.375 113.755C135.055 114.075 134.621 114.255 134.168 114.255H10.3901C9.93738 114.255 9.50324 114.075 9.1831 113.755C8.86297 113.435 8.68304 113.001 8.68286 112.548Z" stroke="url(#paint89_linear_18_2750)" stroke-width="0.832753"/>
<path d="M77.827 3.28215C77.8272 2.82941 78.0071 2.39527 78.3273 2.07514C78.6474 1.755 79.0815 1.57507 79.5343 1.57489H85.5097C85.7379 1.56848 85.9652 1.6079 86.1779 1.69081C86.3906 1.77372 86.5846 1.89845 86.7483 2.05762C86.912 2.21679 87.0421 2.40717 87.131 2.61749C87.2198 2.82782 87.2656 3.05383 87.2656 3.28215C87.2656 3.51048 87.2198 3.73649 87.131 3.94682C87.0421 4.15715 86.912 4.34753 86.7483 4.50669C86.5846 4.66586 86.3906 4.79059 86.1779 4.8735C85.9652 4.95642 85.7379 4.99583 85.5097 4.98942H79.5343C79.0815 4.98942 78.6472 4.80955 78.3271 4.48937C78.0069 4.1692 77.827 3.73495 77.827 3.28215Z" stroke="url(#paint90_linear_18_2750)" stroke-width="0.104094"/>
<path d="M70.1442 10.111C70.1443 9.6583 70.3243 9.22416 70.6444 8.90402C70.9645 8.58389 71.3987 8.40396 71.8514 8.40378H92.3393C92.7837 8.41627 93.2058 8.60161 93.5158 8.92042C93.8258 9.23924 93.9992 9.66637 93.9992 10.111C93.9992 10.5557 93.8258 10.9828 93.5158 11.3017C93.2058 11.6205 92.7837 11.8058 92.3393 11.8183H71.8514C71.3986 11.8183 70.9644 11.6384 70.6442 11.3183C70.324 10.9981 70.1442 10.5638 70.1442 10.111Z" stroke="url(#paint91_linear_18_2750)" stroke-width="0.104094"/>
<path d="M65.0227 16.9406C65.0229 16.4879 65.2028 16.0537 65.5229 15.7336C65.8431 15.4134 66.2772 15.2335 66.73 15.2333H92.3396C92.7841 15.2458 93.2062 15.4312 93.5162 15.75C93.8261 16.0688 93.9996 16.4959 93.9996 16.9406C93.9996 17.3853 93.8261 17.8124 93.5162 18.1312C93.2062 18.45 92.7841 18.6354 92.3396 18.6479H66.73C66.2772 18.6479 65.8429 18.468 65.5227 18.1478C65.2026 17.8276 65.0227 17.3934 65.0227 16.9406Z" stroke="url(#paint92_linear_18_2750)" stroke-width="0.104094"/>
<path d="M59.9014 23.7694C59.9015 23.3166 60.0815 22.8825 60.4016 22.5623C60.7218 22.2422 61.1559 22.0623 61.6086 22.0621H92.34C92.7845 22.0746 93.2066 22.2599 93.5166 22.5787C93.8266 22.8976 94 23.3247 94 23.7694C94 24.214 93.8266 24.6412 93.5166 24.96C93.2066 25.2788 92.7845 25.4641 92.34 25.4766H61.6086C61.1558 25.4766 60.7216 25.2968 60.4014 24.9766C60.0812 24.6564 59.9014 24.2222 59.9014 23.7694Z" stroke="url(#paint93_linear_18_2750)" stroke-width="0.104094"/>
<path d="M54.78 30.5988C54.78 29.6556 55.5441 28.8909 56.4873 28.8909H92.3405C92.7875 28.8997 93.2132 29.0836 93.5262 29.4028C93.8392 29.7221 94.0145 30.1514 94.0145 30.5985C94.0145 31.0456 93.8392 31.4748 93.5262 31.7941C93.2132 32.1134 92.7875 32.2972 92.3405 32.3061H56.4873C56.0345 32.3061 55.6002 32.1262 55.2801 31.806C54.9599 31.4858 54.78 31.0516 54.78 30.5988Z" stroke="url(#paint94_linear_18_2750)" stroke-width="0.104094"/>
<path d="M49.657 37.4277C49.657 36.4845 50.421 35.7204 51.3642 35.7204H92.3392C92.792 35.7204 93.2263 35.9003 93.5465 36.2205C93.8666 36.5406 94.0465 36.9749 94.0465 37.4277C94.0465 37.8805 93.8666 38.3147 93.5465 38.6349C93.2263 38.9551 92.792 39.135 92.3392 39.135H51.3642C50.9114 39.135 50.4772 38.9551 50.157 38.6349C49.8369 38.3147 49.657 37.8805 49.657 37.4277Z" stroke="url(#paint95_linear_18_2750)" stroke-width="0.104094"/>
<path d="M43.6824 44.2572C43.6824 43.314 44.4464 42.55 45.3896 42.55H92.3401C92.7928 42.55 93.2271 42.7299 93.5473 43.05C93.8674 43.3702 94.0473 43.8045 94.0473 44.2572C94.0473 44.71 93.8674 45.1443 93.5473 45.4645C93.2271 45.7846 92.7928 45.9645 92.3401 45.9645H45.3896C44.9368 45.9645 44.5026 45.7846 44.1824 45.4645C43.8622 45.1443 43.6824 44.71 43.6824 44.2572Z" stroke="url(#paint96_linear_18_2750)" stroke-width="0.104094"/>
<path d="M38.561 51.0864C38.561 50.1432 39.3251 49.3792 40.2683 49.3792H92.3405C92.7933 49.3792 93.2276 49.559 93.5477 49.8792C93.8679 50.1994 94.0478 50.6336 94.0478 51.0864C94.0478 51.5392 93.8679 51.9735 93.5477 52.2936C93.2276 52.6138 92.7933 52.7937 92.3405 52.7937H40.2683C39.8155 52.7937 39.3813 52.6138 39.0611 52.2936C38.7409 51.9735 38.561 51.5392 38.561 51.0864Z" stroke="url(#paint97_linear_18_2750)" stroke-width="0.104094"/>
<path d="M33.4396 57.9152C33.4396 56.9719 34.2036 56.2079 35.1468 56.2079H92.3408C92.7936 56.2079 93.2279 56.3878 93.548 56.708C93.8682 57.0281 94.0481 57.4624 94.0481 57.9152C94.0481 58.368 93.8682 58.8022 93.548 59.1224C93.2279 59.4426 92.7936 59.6224 92.3408 59.6224H35.1468C34.694 59.6224 34.2598 59.4426 33.9396 59.1224C33.6194 58.8022 33.4396 58.368 33.4396 57.9152Z" stroke="url(#paint98_linear_18_2750)" stroke-width="0.104094"/>
<path d="M28.3167 64.7439C28.3168 64.2911 28.4968 63.8568 28.8171 63.5367C29.1374 63.2165 29.5717 63.0367 30.0246 63.0367L92.3404 63.0367C92.7849 63.0492 93.207 63.2345 93.5169 63.5533C93.8269 63.8721 94.0003 64.2993 94.0003 64.7439C94.0003 65.1886 93.8269 65.6157 93.5169 65.9346C93.207 66.2534 92.7849 66.4387 92.3404 66.4512H30.0246C29.8003 66.4513 29.5783 66.4072 29.371 66.3214C29.1638 66.2357 28.9755 66.1099 28.8169 65.9514C28.6583 65.7929 28.5325 65.6046 28.4467 65.3974C28.3608 65.1903 28.3167 64.9682 28.3167 64.7439Z" stroke="url(#paint99_linear_18_2750)" stroke-width="0.104094"/>
<path d="M23.1953 71.5735C23.1955 71.1207 23.3754 70.6866 23.6956 70.3665C24.0157 70.0463 24.4498 69.8664 24.9026 69.8662H92.3408C92.7853 69.8787 93.2074 70.0641 93.5174 70.3829C93.8274 70.7017 94.0008 71.1288 94.0008 71.5735C94.0008 72.0181 93.8274 72.4453 93.5174 72.7641C93.2074 73.0829 92.7853 73.2683 92.3408 73.2807H24.9026C24.4498 73.2807 24.0155 73.1009 23.6954 72.7807C23.3752 72.4605 23.1953 72.0263 23.1953 71.5735Z" stroke="url(#paint100_linear_18_2750)" stroke-width="0.104094"/>
<path d="M18.0723 78.4023C18.0724 77.9495 18.2524 77.5154 18.5725 77.1953C18.8926 76.8751 19.3268 76.6952 19.7795 76.695H92.3396C92.7841 76.7075 93.2062 76.8929 93.5161 77.2117C93.8261 77.5305 93.9995 77.9576 93.9995 78.4023C93.9995 78.8469 93.8261 79.2741 93.5161 79.5929C93.2062 79.9117 92.7841 80.0971 92.3396 80.1095H19.7795C19.3267 80.1095 18.8925 79.9297 18.5723 79.6095C18.2521 79.2893 18.0723 78.8551 18.0723 78.4023Z" stroke="url(#paint101_linear_18_2750)" stroke-width="0.104094"/>
<path d="M12.9509 85.2314C12.9511 84.7787 13.131 84.3446 13.4512 84.0244C13.7713 83.7043 14.2055 83.5243 14.6582 83.5242H92.34C92.787 83.533 93.2127 83.7169 93.5257 84.0361C93.8387 84.3554 94.014 84.7847 94.014 85.2318C94.014 85.6789 93.8387 86.1081 93.5257 86.4274C93.2127 86.7467 92.787 86.9305 92.34 86.9394H14.6582C14.2053 86.9392 13.7711 86.7592 13.4509 86.4389C13.1308 86.1186 12.9509 85.6843 12.9509 85.2314Z" stroke="url(#paint102_linear_18_2750)" stroke-width="0.104094"/>
<path d="M7.828 92.0614C7.828 91.1181 8.5927 90.3541 9.53526 90.3541H137.581C138.034 90.3541 138.468 90.534 138.789 90.8541C139.109 91.1743 139.289 91.6086 139.289 92.0614C139.289 92.5142 139.109 92.9484 138.789 93.2686C138.468 93.5887 138.034 93.7686 137.581 93.7686H9.53526C9.08252 93.7684 8.64838 93.5885 8.32825 93.2684C8.00811 92.9482 7.82818 92.5141 7.828 92.0614Z" stroke="url(#paint103_linear_18_2750)" stroke-width="0.104094"/>
<path d="M2.70813 98.8905C2.70813 97.9473 3.47283 97.1833 4.4154 97.1833H138.437C138.89 97.1833 139.324 97.3631 139.644 97.6833C139.964 98.0035 140.144 98.4377 140.144 98.8905C140.144 99.3433 139.964 99.7776 139.644 100.098C139.324 100.418 138.89 100.598 138.437 100.598H4.4154C3.96266 100.598 3.52851 100.418 3.20837 100.098C2.88824 99.7774 2.70831 99.3433 2.70813 98.8905Z" stroke="url(#paint104_linear_18_2750)" stroke-width="0.104094"/>
<path d="M1 105.719C1 104.776 1.7647 104.012 2.70726 104.012H134.168C134.621 104.012 135.055 104.192 135.375 104.512C135.695 104.832 135.875 105.266 135.875 105.719C135.875 106.172 135.695 106.606 135.375 106.927C135.055 107.247 134.621 107.427 134.168 107.427H2.70726C2.25452 107.426 1.82038 107.246 1.50024 106.926C1.18011 106.606 1.00018 106.172 1 105.719Z" stroke="url(#paint105_linear_18_2750)" stroke-width="0.104094"/>
<path d="M8.68286 112.548C8.68286 111.605 9.44756 110.841 10.3901 110.841H134.168C134.621 110.841 135.055 111.021 135.375 111.341C135.695 111.661 135.875 112.095 135.875 112.548C135.875 113.001 135.695 113.435 135.375 113.755C135.055 114.075 134.621 114.255 134.168 114.255H10.3901C9.93738 114.255 9.50324 114.075 9.1831 113.755C8.86297 113.435 8.68304 113.001 8.68286 112.548Z" stroke="url(#paint106_linear_18_2750)" stroke-width="0.104094"/>
<path d="M128.193 119.378C128.193 120.321 127.429 121.085 126.486 121.085H48.8044C48.5802 121.085 48.3582 121.041 48.1511 120.955C47.9439 120.869 47.7557 120.743 47.5972 120.585C47.4387 120.426 47.3129 120.238 47.2271 120.031C47.1413 119.824 47.0972 119.602 47.0972 119.378C47.0972 119.153 47.1413 118.931 47.2271 118.724C47.3129 118.517 47.4387 118.329 47.5972 118.17C47.7557 118.012 47.9439 117.886 48.1511 117.8C48.3582 117.715 48.5802 117.67 48.8044 117.67H126.486C127.429 117.67 128.193 118.435 128.193 119.378Z" stroke="url(#paint107_linear_18_2750)" stroke-width="0.104094"/>
<path d="M123.071 126.206C123.071 127.15 122.307 127.914 121.364 127.914H48.8044C48.3516 127.914 47.9174 127.734 47.5972 127.414C47.277 127.093 47.0972 126.659 47.0972 126.206C47.0972 125.754 47.277 125.319 47.5972 124.999C47.9174 124.679 48.3516 124.499 48.8044 124.499H121.364C122.307 124.499 123.071 125.264 123.071 126.206Z" stroke="url(#paint108_linear_18_2750)" stroke-width="0.104094"/>
<path d="M117.949 133.036C117.949 133.979 117.185 134.743 116.242 134.743H48.8044C48.3516 134.743 47.9174 134.563 47.5972 134.243C47.277 133.923 47.0972 133.488 47.0972 133.036C47.0972 132.583 47.277 132.148 47.5972 131.828C47.9174 131.508 48.3516 131.328 48.8044 131.328H116.242C117.185 131.328 117.949 132.093 117.949 133.036Z" stroke="url(#paint109_linear_18_2750)" stroke-width="0.104094"/>
<path d="M112.827 139.864C112.827 140.808 112.063 141.572 111.12 141.572H48.8044C48.3516 141.572 47.9174 141.392 47.5972 141.072C47.277 140.751 47.0972 140.317 47.0972 139.864C47.0972 139.412 47.277 138.977 47.5972 138.657C47.9174 138.337 48.3516 138.157 48.8044 138.157H111.12C111.573 138.157 112.007 138.337 112.327 138.657C112.647 138.977 112.827 139.412 112.827 139.864Z" stroke="url(#paint110_linear_18_2750)" stroke-width="0.104094"/>
<path d="M107.706 146.695C107.706 147.147 107.526 147.581 107.206 147.902C106.886 148.222 106.451 148.402 105.999 148.402H48.8048C48.3519 148.402 47.9176 148.222 47.5973 147.902C47.2771 147.581 47.0972 147.147 47.0972 146.694C47.0972 146.241 47.2771 145.807 47.5973 145.487C47.9176 145.166 48.3519 144.987 48.8048 144.987H105.999C106.452 144.987 106.886 145.167 107.206 145.487C107.526 145.807 107.706 146.242 107.706 146.695Z" stroke="url(#paint111_linear_18_2750)" stroke-width="0.104094"/>
<path d="M102.584 153.523C102.584 153.976 102.404 154.41 102.084 154.73C101.764 155.051 101.329 155.231 100.877 155.231H48.8044C48.3516 155.231 47.9174 155.051 47.5972 154.731C47.277 154.41 47.0972 153.976 47.0972 153.523C47.0972 153.071 47.277 152.636 47.5972 152.316C47.9174 151.996 48.3516 151.816 48.8044 151.816H100.877C101.329 151.816 101.764 151.996 102.084 152.316C102.404 152.636 102.584 153.071 102.584 153.523Z" stroke="url(#paint112_linear_18_2750)" stroke-width="0.104094"/>
<path d="M97.4621 160.352C97.4619 160.805 97.282 161.239 96.9619 161.559C96.6417 161.879 96.2076 162.059 95.7548 162.059H48.8044C48.3516 162.059 47.9174 161.88 47.5972 161.559C47.277 161.239 47.0972 160.805 47.0972 160.352C47.0972 159.899 47.277 159.465 47.5972 159.145C47.9174 158.825 48.3516 158.645 48.8044 158.645H95.7548C96.2076 158.645 96.6419 158.825 96.9621 159.145C97.2822 159.465 97.4621 159.899 97.4621 160.352Z" stroke="url(#paint113_linear_18_2750)" stroke-width="0.104094"/>
<path d="M91.4867 167.181C91.4865 167.634 91.3066 168.068 90.9864 168.388C90.6663 168.708 90.2322 168.888 89.7794 168.888H48.8044C48.3516 168.888 47.9174 168.708 47.5972 168.388C47.277 168.068 47.0972 167.634 47.0972 167.181C47.0972 166.728 47.277 166.294 47.5972 165.974C47.9174 165.654 48.3516 165.474 48.8044 165.474H89.7794C90.2322 165.474 90.6665 165.654 90.9866 165.974C91.3068 166.294 91.4867 166.728 91.4867 167.181Z" stroke="url(#paint114_linear_18_2750)" stroke-width="0.104094"/>
<path d="M86.3649 174.01C86.3649 174.954 85.6002 175.718 84.657 175.718H48.8044C48.3516 175.718 47.9174 175.538 47.5972 175.218C47.277 174.898 47.0972 174.463 47.0972 174.01C47.0972 173.558 47.277 173.123 47.5972 172.803C47.9174 172.483 48.3516 172.303 48.8044 172.303H84.657C85.6002 172.303 86.3649 173.068 86.3649 174.01Z" stroke="url(#paint115_linear_18_2750)" stroke-width="0.104094"/>
<path d="M81.2424 180.84C81.2424 181.783 80.4784 182.547 79.5352 182.547H48.8044C48.3516 182.547 47.9174 182.367 47.5972 182.047C47.277 181.727 47.0972 181.293 47.0972 180.84C47.0972 180.387 47.277 179.953 47.5972 179.632C47.9174 179.312 48.3516 179.132 48.8044 179.132H79.5352C80.4784 179.132 81.2424 179.897 81.2424 180.84Z" stroke="url(#paint116_linear_18_2750)" stroke-width="0.104094"/>
<path d="M76.1206 187.668C76.1206 188.612 75.3566 189.376 74.4134 189.376H48.8044C48.3516 189.376 47.9174 189.196 47.5972 188.876C47.277 188.555 47.0972 188.121 47.0972 187.668C47.0972 187.216 47.277 186.781 47.5972 186.461C47.9174 186.141 48.3516 185.961 48.8044 185.961H74.4134C75.3566 185.961 76.1206 186.726 76.1206 187.668Z" stroke="url(#paint117_linear_18_2750)" stroke-width="0.104094"/>
<path d="M70.9989 194.498C70.9989 195.441 70.2348 196.205 69.2916 196.205H48.8044C48.3516 196.205 47.9174 196.025 47.5972 195.705C47.277 195.385 47.0972 194.951 47.0972 194.498C47.0972 194.045 47.277 193.611 47.5972 193.291C47.9174 192.971 48.3516 192.791 48.8044 192.791H69.2916C70.2348 192.791 70.9989 193.555 70.9989 194.498Z" stroke="url(#paint118_linear_18_2750)" stroke-width="0.104094"/>
<path d="M63.3153 201.327C63.3153 202.27 62.5513 203.035 61.6081 203.035H55.6326C55.1798 203.035 54.7454 202.855 54.4252 202.535C54.105 202.214 53.925 201.78 53.925 201.327C53.925 200.874 54.105 200.44 54.4252 200.12C54.7454 199.799 55.1798 199.62 55.6326 199.62H61.6081C62.5513 199.62 63.3153 200.384 63.3153 201.327Z" stroke="url(#paint119_linear_18_2750)" stroke-width="0.104094"/>
<defs>
<linearGradient id="paint0_linear_18_2750" x1="21.4122" y1="-78.7245" x2="21.6788" y2="-78.7245" gradientUnits="userSpaceOnUse">
<stop stop-color="#7877C6"/>
<stop offset="1" stop-color="#E93349"/>
</linearGradient>
<linearGradient id="paint1_linear_18_2750" x1="-2.2011" y1="119.337" x2="-1.93589" y2="119.337" gradientUnits="userSpaceOnUse">
<stop stop-color="#7877C6"/>
<stop offset="1" stop-color="#E93349"/>
</linearGradient>
<linearGradient id="paint2_linear_18_2750" x1="-72.4386" y1="-71.8632" x2="-71.7648" y2="-71.8632" gradientUnits="userSpaceOnUse">
<stop stop-color="#7877C6"/>
<stop offset="1" stop-color="#E93349"/>
</linearGradient>
<linearGradient id="paint3_linear_18_2750" x1="-95.7642" y1="112.524" x2="-95.0892" y2="112.524" gradientUnits="userSpaceOnUse">
<stop stop-color="#7877C6"/>
<stop offset="1" stop-color="#E93349"/>
</linearGradient>
<linearGradient id="paint4_linear_18_2750" x1="-108.173" y1="-65.0335" x2="-107.355" y2="-65.0335" gradientUnits="userSpaceOnUse">
<stop stop-color="#7877C6"/>
<stop offset="1" stop-color="#E93349"/>
</linearGradient>
<linearGradient id="paint5_linear_18_2750" x1="-126.377" y1="105.694" x2="-125.558" y2="105.694" gradientUnits="userSpaceOnUse">
<stop stop-color="#7877C6"/>
<stop offset="1" stop-color="#E93349"/>
</linearGradient>
<linearGradient id="paint6_linear_18_2750" x1="-143.908" y1="-58.2048" x2="-142.945" y2="-58.2048" gradientUnits="userSpaceOnUse">
<stop stop-color="#7877C6"/>
<stop offset="1" stop-color="#E93349"/>
</linearGradient>
<linearGradient id="paint7_linear_18_2750" x1="-156.991" y1="98.8656" x2="-156.026" y2="98.8656" gradientUnits="userSpaceOnUse">
<stop stop-color="#7877C6"/>
<stop offset="1" stop-color="#E93349"/>
</linearGradient>
<linearGradient id="paint8_linear_18_2750" x1="-179.726" y1="-51.3919" x2="-178.618" y2="-51.3919" gradientUnits="userSpaceOnUse">
<stop stop-color="#7877C6"/>
<stop offset="1" stop-color="#E93349"/>
</linearGradient>
<linearGradient id="paint9_linear_18_2750" x1="-187.608" y1="92.0364" x2="-186.499" y2="92.0364" gradientUnits="userSpaceOnUse">
<stop stop-color="#7877C6"/>
<stop offset="1" stop-color="#E93349"/>
</linearGradient>
<linearGradient id="paint10_linear_18_2750" x1="-215.661" y1="-44.5464" x2="-214.407" y2="-44.5464" gradientUnits="userSpaceOnUse">
<stop stop-color="#7877C6"/>
<stop offset="1" stop-color="#E93349"/>
</linearGradient>
<linearGradient id="paint11_linear_18_2750" x1="-218.221" y1="85.2068" x2="-216.967" y2="85.2068" gradientUnits="userSpaceOnUse">
<stop stop-color="#7877C6"/>
<stop offset="1" stop-color="#E93349"/>
</linearGradient>
<linearGradient id="paint12_linear_18_2750" x1="-257.351" y1="-37.7169" x2="-255.929" y2="-37.7169" gradientUnits="userSpaceOnUse">
<stop stop-color="#7877C6"/>
<stop offset="1" stop-color="#E93349"/>
</linearGradient>
<linearGradient id="paint13_linear_18_2750" x1="-253.936" y1="78.378" x2="-252.514" y2="78.378" gradientUnits="userSpaceOnUse">
<stop stop-color="#7877C6"/>
<stop offset="1" stop-color="#E93349"/>
</linearGradient>
<linearGradient id="paint14_linear_18_2750" x1="-293.086" y1="-30.8877" x2="-291.518" y2="-30.8877" gradientUnits="userSpaceOnUse">
<stop stop-color="#7877C6"/>
<stop offset="1" stop-color="#E93349"/>
</linearGradient>
<linearGradient id="paint15_linear_18_2750" x1="-284.549" y1="71.5493" x2="-282.982" y2="71.5493" gradientUnits="userSpaceOnUse">
<stop stop-color="#7877C6"/>
<stop offset="1" stop-color="#E93349"/>
</linearGradient>
<linearGradient id="paint16_linear_18_2750" x1="-328.82" y1="-24.059" x2="-327.108" y2="-24.059" gradientUnits="userSpaceOnUse">
<stop stop-color="#7877C6"/>
<stop offset="1" stop-color="#E93349"/>
</linearGradient>
<linearGradient id="paint17_linear_18_2750" x1="-315.165" y1="64.7038" x2="-313.453" y2="64.7038" gradientUnits="userSpaceOnUse">
<stop stop-color="#7877C6"/>
<stop offset="1" stop-color="#E93349"/>
</linearGradient>
<linearGradient id="paint18_linear_18_2750" x1="-364.278" y1="-17.2302" x2="-362.422" y2="-17.2302" gradientUnits="userSpaceOnUse">
<stop stop-color="#7877C6"/>
<stop offset="1" stop-color="#E93349"/>
</linearGradient>
<linearGradient id="paint19_linear_18_2750" x1="-345.776" y1="57.8897" x2="-343.919" y2="57.8897" gradientUnits="userSpaceOnUse">
<stop stop-color="#7877C6"/>
<stop offset="1" stop-color="#E93349"/>
</linearGradient>
<linearGradient id="paint20_linear_18_2750" x1="-400.012" y1="-10.4009" x2="-398.012" y2="-10.4009" gradientUnits="userSpaceOnUse">
<stop stop-color="#7877C6"/>
<stop offset="1" stop-color="#E93349"/>
</linearGradient>
<linearGradient id="paint21_linear_18_2750" x1="-376.389" y1="51.0614" x2="-374.388" y2="51.0614" gradientUnits="userSpaceOnUse">
<stop stop-color="#7877C6"/>
<stop offset="1" stop-color="#E93349"/>
</linearGradient>
<linearGradient id="paint22_linear_18_2750" x1="-435.748" y1="-3.5721" x2="-433.604" y2="-3.5721" gradientUnits="userSpaceOnUse">
<stop stop-color="#7877C6"/>
<stop offset="1" stop-color="#E93349"/>
</linearGradient>
<linearGradient id="paint23_linear_18_2750" x1="-407.002" y1="44.2323" x2="-404.856" y2="44.2323" gradientUnits="userSpaceOnUse">
<stop stop-color="#7877C6"/>
<stop offset="1" stop-color="#E93349"/>
</linearGradient>
<linearGradient id="paint24_linear_18_2750" x1="-471.567" y1="3.24135" x2="-469.277" y2="3.24135" gradientUnits="userSpaceOnUse">
<stop stop-color="#7877C6"/>
<stop offset="1" stop-color="#E93349"/>
</linearGradient>
<linearGradient id="paint25_linear_18_2750" x1="-437.615" y1="37.4035" x2="-435.325" y2="37.4035" gradientUnits="userSpaceOnUse">
<stop stop-color="#7877C6"/>
<stop offset="1" stop-color="#E93349"/>
</linearGradient>
<linearGradient id="paint26_linear_18_2750" x1="-777.918" y1="10.0872" x2="-774.205" y2="10.0872" gradientUnits="userSpaceOnUse">
<stop stop-color="#7877C6"/>
<stop offset="1" stop-color="#E93349"/>
</linearGradient>
<linearGradient id="paint27_linear_18_2750" x1="-818.753" y1="16.9164" x2="-814.872" y2="16.9164" gradientUnits="userSpaceOnUse">
<stop stop-color="#7877C6"/>
<stop offset="1" stop-color="#E93349"/>
</linearGradient>
<linearGradient id="paint28_linear_18_2750" x1="-805.155" y1="23.7452" x2="-801.345" y2="23.7452" gradientUnits="userSpaceOnUse">
<stop stop-color="#7877C6"/>
<stop offset="1" stop-color="#E93349"/>
</linearGradient>
<linearGradient id="paint29_linear_18_2750" x1="-751.552" y1="30.5739" x2="-747.96" y2="30.5739" gradientUnits="userSpaceOnUse">
<stop stop-color="#7877C6"/>
<stop offset="1" stop-color="#E93349"/>
</linearGradient>
<linearGradient id="paint30_linear_18_2750" x1="21.4122" y1="-78.7245" x2="21.6788" y2="-78.7245" gradientUnits="userSpaceOnUse">
<stop stop-color="#7877C6"/>
<stop offset="1" stop-color="#E93349"/>
</linearGradient>
<linearGradient id="paint31_linear_18_2750" x1="-2.2011" y1="119.337" x2="-1.93589" y2="119.337" gradientUnits="userSpaceOnUse">
<stop stop-color="#7877C6"/>
<stop offset="1" stop-color="#E93349"/>
</linearGradient>
<linearGradient id="paint32_linear_18_2750" x1="-72.4386" y1="-71.8632" x2="-71.7648" y2="-71.8632" gradientUnits="userSpaceOnUse">
<stop stop-color="#7877C6"/>
<stop offset="1" stop-color="#E93349"/>
</linearGradient>
<linearGradient id="paint33_linear_18_2750" x1="-95.7642" y1="112.524" x2="-95.0892" y2="112.524" gradientUnits="userSpaceOnUse">
<stop stop-color="#7877C6"/>
<stop offset="1" stop-color="#E93349"/>
</linearGradient>
<linearGradient id="paint34_linear_18_2750" x1="-108.173" y1="-65.0335" x2="-107.355" y2="-65.0335" gradientUnits="userSpaceOnUse">
<stop stop-color="#7877C6"/>
<stop offset="1" stop-color="#E93349"/>
</linearGradient>
<linearGradient id="paint35_linear_18_2750" x1="-126.377" y1="105.694" x2="-125.558" y2="105.694" gradientUnits="userSpaceOnUse">
<stop stop-color="#7877C6"/>
<stop offset="1" stop-color="#E93349"/>
</linearGradient>
<linearGradient id="paint36_linear_18_2750" x1="-143.908" y1="-58.2048" x2="-142.945" y2="-58.2048" gradientUnits="userSpaceOnUse">
<stop stop-color="#7877C6"/>
<stop offset="1" stop-color="#E93349"/>
</linearGradient>
<linearGradient id="paint37_linear_18_2750" x1="-156.991" y1="98.8656" x2="-156.026" y2="98.8656" gradientUnits="userSpaceOnUse">
<stop stop-color="#7877C6"/>
<stop offset="1" stop-color="#E93349"/>
</linearGradient>
<linearGradient id="paint38_linear_18_2750" x1="-179.726" y1="-51.3919" x2="-178.618" y2="-51.3919" gradientUnits="userSpaceOnUse">
<stop stop-color="#7877C6"/>
<stop offset="1" stop-color="#E93349"/>
</linearGradient>
<linearGradient id="paint39_linear_18_2750" x1="-187.608" y1="92.0364" x2="-186.499" y2="92.0364" gradientUnits="userSpaceOnUse">
<stop stop-color="#7877C6"/>
<stop offset="1" stop-color="#E93349"/>
</linearGradient>
<linearGradient id="paint40_linear_18_2750" x1="-215.661" y1="-44.5464" x2="-214.407" y2="-44.5464" gradientUnits="userSpaceOnUse">
<stop stop-color="#7877C6"/>
<stop offset="1" stop-color="#E93349"/>
</linearGradient>
<linearGradient id="paint41_linear_18_2750" x1="-218.221" y1="85.2068" x2="-216.967" y2="85.2068" gradientUnits="userSpaceOnUse">
<stop stop-color="#7877C6"/>
<stop offset="1" stop-color="#E93349"/>
</linearGradient>
<linearGradient id="paint42_linear_18_2750" x1="-257.351" y1="-37.7169" x2="-255.929" y2="-37.7169" gradientUnits="userSpaceOnUse">
<stop stop-color="#7877C6"/>
<stop offset="1" stop-color="#E93349"/>
</linearGradient>
<linearGradient id="paint43_linear_18_2750" x1="-253.936" y1="78.378" x2="-252.514" y2="78.378" gradientUnits="userSpaceOnUse">
<stop stop-color="#7877C6"/>
<stop offset="1" stop-color="#E93349"/>
</linearGradient>
<linearGradient id="paint44_linear_18_2750" x1="-293.086" y1="-30.8877" x2="-291.518" y2="-30.8877" gradientUnits="userSpaceOnUse">
<stop stop-color="#7877C6"/>
<stop offset="1" stop-color="#E93349"/>
</linearGradient>
<linearGradient id="paint45_linear_18_2750" x1="-284.549" y1="71.5493" x2="-282.982" y2="71.5493" gradientUnits="userSpaceOnUse">
<stop stop-color="#7877C6"/>
<stop offset="1" stop-color="#E93349"/>
</linearGradient>
<linearGradient id="paint46_linear_18_2750" x1="-328.82" y1="-24.059" x2="-327.108" y2="-24.059" gradientUnits="userSpaceOnUse">
<stop stop-color="#7877C6"/>
<stop offset="1" stop-color="#E93349"/>
</linearGradient>
<linearGradient id="paint47_linear_18_2750" x1="-315.165" y1="64.7038" x2="-313.453" y2="64.7038" gradientUnits="userSpaceOnUse">
<stop stop-color="#7877C6"/>
<stop offset="1" stop-color="#E93349"/>
</linearGradient>
<linearGradient id="paint48_linear_18_2750" x1="-364.278" y1="-17.2302" x2="-362.422" y2="-17.2302" gradientUnits="userSpaceOnUse">
<stop stop-color="#7877C6"/>
<stop offset="1" stop-color="#E93349"/>
</linearGradient>
<linearGradient id="paint49_linear_18_2750" x1="-345.776" y1="57.8897" x2="-343.919" y2="57.8897" gradientUnits="userSpaceOnUse">
<stop stop-color="#7877C6"/>
<stop offset="1" stop-color="#E93349"/>
</linearGradient>
<linearGradient id="paint50_linear_18_2750" x1="-400.012" y1="-10.4009" x2="-398.012" y2="-10.4009" gradientUnits="userSpaceOnUse">
<stop stop-color="#7877C6"/>
<stop offset="1" stop-color="#E93349"/>
</linearGradient>
<linearGradient id="paint51_linear_18_2750" x1="-376.389" y1="51.0614" x2="-374.388" y2="51.0614" gradientUnits="userSpaceOnUse">
<stop stop-color="#7877C6"/>
<stop offset="1" stop-color="#E93349"/>
</linearGradient>
<linearGradient id="paint52_linear_18_2750" x1="-435.748" y1="-3.5721" x2="-433.604" y2="-3.5721" gradientUnits="userSpaceOnUse">
<stop stop-color="#7877C6"/>
<stop offset="1" stop-color="#E93349"/>
</linearGradient>
<linearGradient id="paint53_linear_18_2750" x1="-407.002" y1="44.2323" x2="-404.856" y2="44.2323" gradientUnits="userSpaceOnUse">
<stop stop-color="#7877C6"/>
<stop offset="1" stop-color="#E93349"/>
</linearGradient>
<linearGradient id="paint54_linear_18_2750" x1="-471.567" y1="3.24135" x2="-469.277" y2="3.24135" gradientUnits="userSpaceOnUse">
<stop stop-color="#7877C6"/>
<stop offset="1" stop-color="#E93349"/>
</linearGradient>
<linearGradient id="paint55_linear_18_2750" x1="-437.615" y1="37.4035" x2="-435.325" y2="37.4035" gradientUnits="userSpaceOnUse">
<stop stop-color="#7877C6"/>
<stop offset="1" stop-color="#E93349"/>
</linearGradient>
<linearGradient id="paint56_linear_18_2750" x1="-777.918" y1="10.0872" x2="-774.205" y2="10.0872" gradientUnits="userSpaceOnUse">
<stop stop-color="#7877C6"/>
<stop offset="1" stop-color="#E93349"/>
</linearGradient>
<linearGradient id="paint57_linear_18_2750" x1="-818.753" y1="16.9164" x2="-814.872" y2="16.9164" gradientUnits="userSpaceOnUse">
<stop stop-color="#7877C6"/>
<stop offset="1" stop-color="#E93349"/>
</linearGradient>
<linearGradient id="paint58_linear_18_2750" x1="-805.155" y1="23.7452" x2="-801.345" y2="23.7452" gradientUnits="userSpaceOnUse">
<stop stop-color="#7877C6"/>
<stop offset="1" stop-color="#E93349"/>
</linearGradient>
<linearGradient id="paint59_linear_18_2750" x1="-751.552" y1="30.5739" x2="-747.96" y2="30.5739" gradientUnits="userSpaceOnUse">
<stop stop-color="#7877C6"/>
<stop offset="1" stop-color="#E93349"/>
</linearGradient>
<linearGradient id="paint60_linear_18_2750" x1="21.4122" y1="-78.7245" x2="21.6788" y2="-78.7245" gradientUnits="userSpaceOnUse">
<stop stop-color="#7877C6"/>
<stop offset="1" stop-color="#E93349"/>
</linearGradient>
<linearGradient id="paint61_linear_18_2750" x1="-2.2011" y1="119.337" x2="-1.93589" y2="119.337" gradientUnits="userSpaceOnUse">
<stop stop-color="#7877C6"/>
<stop offset="1" stop-color="#E93349"/>
</linearGradient>
<linearGradient id="paint62_linear_18_2750" x1="-72.4386" y1="-71.8632" x2="-71.7648" y2="-71.8632" gradientUnits="userSpaceOnUse">
<stop stop-color="#7877C6"/>
<stop offset="1" stop-color="#E93349"/>
</linearGradient>
<linearGradient id="paint63_linear_18_2750" x1="-95.7642" y1="112.524" x2="-95.0892" y2="112.524" gradientUnits="userSpaceOnUse">
<stop stop-color="#7877C6"/>
<stop offset="1" stop-color="#E93349"/>
</linearGradient>
<linearGradient id="paint64_linear_18_2750" x1="-108.173" y1="-65.0335" x2="-107.355" y2="-65.0335" gradientUnits="userSpaceOnUse">
<stop stop-color="#7877C6"/>
<stop offset="1" stop-color="#E93349"/>
</linearGradient>
<linearGradient id="paint65_linear_18_2750" x1="-126.377" y1="105.694" x2="-125.558" y2="105.694" gradientUnits="userSpaceOnUse">
<stop stop-color="#7877C6"/>
<stop offset="1" stop-color="#E93349"/>
</linearGradient>
<linearGradient id="paint66_linear_18_2750" x1="-143.908" y1="-58.2048" x2="-142.945" y2="-58.2048" gradientUnits="userSpaceOnUse">
<stop stop-color="#7877C6"/>
<stop offset="1" stop-color="#E93349"/>
</linearGradient>
<linearGradient id="paint67_linear_18_2750" x1="-156.991" y1="98.8656" x2="-156.026" y2="98.8656" gradientUnits="userSpaceOnUse">
<stop stop-color="#7877C6"/>
<stop offset="1" stop-color="#E93349"/>
</linearGradient>
<linearGradient id="paint68_linear_18_2750" x1="-179.726" y1="-51.3919" x2="-178.618" y2="-51.3919" gradientUnits="userSpaceOnUse">
<stop stop-color="#7877C6"/>
<stop offset="1" stop-color="#E93349"/>
</linearGradient>
<linearGradient id="paint69_linear_18_2750" x1="-187.608" y1="92.0364" x2="-186.499" y2="92.0364" gradientUnits="userSpaceOnUse">
<stop stop-color="#7877C6"/>
<stop offset="1" stop-color="#E93349"/>
</linearGradient>
<linearGradient id="paint70_linear_18_2750" x1="-215.661" y1="-44.5464" x2="-214.407" y2="-44.5464" gradientUnits="userSpaceOnUse">
<stop stop-color="#7877C6"/>
<stop offset="1" stop-color="#E93349"/>
</linearGradient>
<linearGradient id="paint71_linear_18_2750" x1="-218.221" y1="85.2068" x2="-216.967" y2="85.2068" gradientUnits="userSpaceOnUse">
<stop stop-color="#7877C6"/>
<stop offset="1" stop-color="#E93349"/>
</linearGradient>
<linearGradient id="paint72_linear_18_2750" x1="-257.351" y1="-37.7169" x2="-255.929" y2="-37.7169" gradientUnits="userSpaceOnUse">
<stop stop-color="#7877C6"/>
<stop offset="1" stop-color="#E93349"/>
</linearGradient>
<linearGradient id="paint73_linear_18_2750" x1="-253.936" y1="78.378" x2="-252.514" y2="78.378" gradientUnits="userSpaceOnUse">
<stop stop-color="#7877C6"/>
<stop offset="1" stop-color="#E93349"/>
</linearGradient>
<linearGradient id="paint74_linear_18_2750" x1="-293.086" y1="-30.8877" x2="-291.518" y2="-30.8877" gradientUnits="userSpaceOnUse">
<stop stop-color="#7877C6"/>
<stop offset="1" stop-color="#E93349"/>
</linearGradient>
<linearGradient id="paint75_linear_18_2750" x1="-284.549" y1="71.5493" x2="-282.982" y2="71.5493" gradientUnits="userSpaceOnUse">
<stop stop-color="#7877C6"/>
<stop offset="1" stop-color="#E93349"/>
</linearGradient>
<linearGradient id="paint76_linear_18_2750" x1="-328.82" y1="-24.059" x2="-327.108" y2="-24.059" gradientUnits="userSpaceOnUse">
<stop stop-color="#7877C6"/>
<stop offset="1" stop-color="#E93349"/>
</linearGradient>
<linearGradient id="paint77_linear_18_2750" x1="-315.165" y1="64.7038" x2="-313.453" y2="64.7038" gradientUnits="userSpaceOnUse">
<stop stop-color="#7877C6"/>
<stop offset="1" stop-color="#E93349"/>
</linearGradient>
<linearGradient id="paint78_linear_18_2750" x1="-364.278" y1="-17.2302" x2="-362.422" y2="-17.2302" gradientUnits="userSpaceOnUse">
<stop stop-color="#7877C6"/>
<stop offset="1" stop-color="#E93349"/>
</linearGradient>
<linearGradient id="paint79_linear_18_2750" x1="-345.776" y1="57.8897" x2="-343.919" y2="57.8897" gradientUnits="userSpaceOnUse">
<stop stop-color="#7877C6"/>
<stop offset="1" stop-color="#E93349"/>
</linearGradient>
<linearGradient id="paint80_linear_18_2750" x1="-400.012" y1="-10.4009" x2="-398.012" y2="-10.4009" gradientUnits="userSpaceOnUse">
<stop stop-color="#7877C6"/>
<stop offset="1" stop-color="#E93349"/>
</linearGradient>
<linearGradient id="paint81_linear_18_2750" x1="-376.389" y1="51.0614" x2="-374.388" y2="51.0614" gradientUnits="userSpaceOnUse">
<stop stop-color="#7877C6"/>
<stop offset="1" stop-color="#E93349"/>
</linearGradient>
<linearGradient id="paint82_linear_18_2750" x1="-435.748" y1="-3.5721" x2="-433.604" y2="-3.5721" gradientUnits="userSpaceOnUse">
<stop stop-color="#7877C6"/>
<stop offset="1" stop-color="#E93349"/>
</linearGradient>
<linearGradient id="paint83_linear_18_2750" x1="-407.002" y1="44.2323" x2="-404.856" y2="44.2323" gradientUnits="userSpaceOnUse">
<stop stop-color="#7877C6"/>
<stop offset="1" stop-color="#E93349"/>
</linearGradient>
<linearGradient id="paint84_linear_18_2750" x1="-471.567" y1="3.24135" x2="-469.277" y2="3.24135" gradientUnits="userSpaceOnUse">
<stop stop-color="#7877C6"/>
<stop offset="1" stop-color="#E93349"/>
</linearGradient>
<linearGradient id="paint85_linear_18_2750" x1="-437.615" y1="37.4035" x2="-435.325" y2="37.4035" gradientUnits="userSpaceOnUse">
<stop stop-color="#7877C6"/>
<stop offset="1" stop-color="#E93349"/>
</linearGradient>
<linearGradient id="paint86_linear_18_2750" x1="-777.918" y1="10.0872" x2="-774.205" y2="10.0872" gradientUnits="userSpaceOnUse">
<stop stop-color="#7877C6"/>
<stop offset="1" stop-color="#E93349"/>
</linearGradient>
<linearGradient id="paint87_linear_18_2750" x1="-818.753" y1="16.9164" x2="-814.872" y2="16.9164" gradientUnits="userSpaceOnUse">
<stop stop-color="#7877C6"/>
<stop offset="1" stop-color="#E93349"/>
</linearGradient>
<linearGradient id="paint88_linear_18_2750" x1="-805.155" y1="23.7452" x2="-801.345" y2="23.7452" gradientUnits="userSpaceOnUse">
<stop stop-color="#7877C6"/>
<stop offset="1" stop-color="#E93349"/>
</linearGradient>
<linearGradient id="paint89_linear_18_2750" x1="-751.552" y1="30.5739" x2="-747.96" y2="30.5739" gradientUnits="userSpaceOnUse">
<stop stop-color="#7877C6"/>
<stop offset="1" stop-color="#E93349"/>
</linearGradient>
<linearGradient id="paint90_linear_18_2750" x1="21.4122" y1="-78.7245" x2="21.6788" y2="-78.7245" gradientUnits="userSpaceOnUse">
<stop stop-color="#7877C6"/>
<stop offset="1" stop-color="#E93349"/>
</linearGradient>
<linearGradient id="paint91_linear_18_2750" x1="-72.4386" y1="-71.8632" x2="-71.7648" y2="-71.8632" gradientUnits="userSpaceOnUse">
<stop stop-color="#7877C6"/>
<stop offset="1" stop-color="#E93349"/>
</linearGradient>
<linearGradient id="paint92_linear_18_2750" x1="-108.173" y1="-65.0335" x2="-107.355" y2="-65.0335" gradientUnits="userSpaceOnUse">
<stop stop-color="#7877C6"/>
<stop offset="1" stop-color="#E93349"/>
</linearGradient>
<linearGradient id="paint93_linear_18_2750" x1="-143.908" y1="-58.2048" x2="-142.945" y2="-58.2048" gradientUnits="userSpaceOnUse">
<stop stop-color="#7877C6"/>
<stop offset="1" stop-color="#E93349"/>
</linearGradient>
<linearGradient id="paint94_linear_18_2750" x1="-179.726" y1="-51.3919" x2="-178.618" y2="-51.3919" gradientUnits="userSpaceOnUse">
<stop stop-color="#7877C6"/>
<stop offset="1" stop-color="#E93349"/>
</linearGradient>
<linearGradient id="paint95_linear_18_2750" x1="-215.661" y1="-44.5464" x2="-214.407" y2="-44.5464" gradientUnits="userSpaceOnUse">
<stop stop-color="#7877C6"/>
<stop offset="1" stop-color="#E93349"/>
</linearGradient>
<linearGradient id="paint96_linear_18_2750" x1="-257.351" y1="-37.7169" x2="-255.929" y2="-37.7169" gradientUnits="userSpaceOnUse">
<stop stop-color="#7877C6"/>
<stop offset="1" stop-color="#E93349"/>
</linearGradient>
<linearGradient id="paint97_linear_18_2750" x1="-293.086" y1="-30.8877" x2="-291.518" y2="-30.8877" gradientUnits="userSpaceOnUse">
<stop stop-color="#7877C6"/>
<stop offset="1" stop-color="#E93349"/>
</linearGradient>
<linearGradient id="paint98_linear_18_2750" x1="-328.82" y1="-24.059" x2="-327.108" y2="-24.059" gradientUnits="userSpaceOnUse">
<stop stop-color="#7877C6"/>
<stop offset="1" stop-color="#E93349"/>
</linearGradient>
<linearGradient id="paint99_linear_18_2750" x1="-364.278" y1="-17.2302" x2="-362.422" y2="-17.2302" gradientUnits="userSpaceOnUse">
<stop stop-color="#7877C6"/>
<stop offset="1" stop-color="#E93349"/>
</linearGradient>
<linearGradient id="paint100_linear_18_2750" x1="-400.012" y1="-10.4009" x2="-398.012" y2="-10.4009" gradientUnits="userSpaceOnUse">
<stop stop-color="#7877C6"/>
<stop offset="1" stop-color="#E93349"/>
</linearGradient>
<linearGradient id="paint101_linear_18_2750" x1="-435.748" y1="-3.5721" x2="-433.604" y2="-3.5721" gradientUnits="userSpaceOnUse">
<stop stop-color="#7877C6"/>
<stop offset="1" stop-color="#E93349"/>
</linearGradient>
<linearGradient id="paint102_linear_18_2750" x1="-471.567" y1="3.24135" x2="-469.277" y2="3.24135" gradientUnits="userSpaceOnUse">
<stop stop-color="#7877C6"/>
<stop offset="1" stop-color="#E93349"/>
</linearGradient>
<linearGradient id="paint103_linear_18_2750" x1="-777.918" y1="10.0872" x2="-774.205" y2="10.0872" gradientUnits="userSpaceOnUse">
<stop stop-color="#7877C6"/>
<stop offset="1" stop-color="#E93349"/>
</linearGradient>
<linearGradient id="paint104_linear_18_2750" x1="-818.753" y1="16.9164" x2="-814.872" y2="16.9164" gradientUnits="userSpaceOnUse">
<stop stop-color="#7877C6"/>
<stop offset="1" stop-color="#E93349"/>
</linearGradient>
<linearGradient id="paint105_linear_18_2750" x1="-805.155" y1="23.7452" x2="-801.345" y2="23.7452" gradientUnits="userSpaceOnUse">
<stop stop-color="#7877C6"/>
<stop offset="1" stop-color="#E93349"/>
</linearGradient>
<linearGradient id="paint106_linear_18_2750" x1="-751.552" y1="30.5739" x2="-747.96" y2="30.5739" gradientUnits="userSpaceOnUse">
<stop stop-color="#7877C6"/>
<stop offset="1" stop-color="#E93349"/>
</linearGradient>
<linearGradient id="paint107_linear_18_2750" x1="-437.615" y1="37.4035" x2="-435.325" y2="37.4035" gradientUnits="userSpaceOnUse">
<stop stop-color="#7877C6"/>
<stop offset="1" stop-color="#E93349"/>
</linearGradient>
<linearGradient id="paint108_linear_18_2750" x1="-407.002" y1="44.2323" x2="-404.856" y2="44.2323" gradientUnits="userSpaceOnUse">
<stop stop-color="#7877C6"/>
<stop offset="1" stop-color="#E93349"/>
</linearGradient>
<linearGradient id="paint109_linear_18_2750" x1="-376.389" y1="51.0614" x2="-374.388" y2="51.0614" gradientUnits="userSpaceOnUse">
<stop stop-color="#7877C6"/>
<stop offset="1" stop-color="#E93349"/>
</linearGradient>
<linearGradient id="paint110_linear_18_2750" x1="-345.776" y1="57.8897" x2="-343.919" y2="57.8897" gradientUnits="userSpaceOnUse">
<stop stop-color="#7877C6"/>
<stop offset="1" stop-color="#E93349"/>
</linearGradient>
<linearGradient id="paint111_linear_18_2750" x1="-315.165" y1="64.7038" x2="-313.453" y2="64.7038" gradientUnits="userSpaceOnUse">
<stop stop-color="#7877C6"/>
<stop offset="1" stop-color="#E93349"/>
</linearGradient>
<linearGradient id="paint112_linear_18_2750" x1="-284.549" y1="71.5493" x2="-282.982" y2="71.5493" gradientUnits="userSpaceOnUse">
<stop stop-color="#7877C6"/>
<stop offset="1" stop-color="#E93349"/>
</linearGradient>
<linearGradient id="paint113_linear_18_2750" x1="-253.936" y1="78.378" x2="-252.514" y2="78.378" gradientUnits="userSpaceOnUse">
<stop stop-color="#7877C6"/>
<stop offset="1" stop-color="#E93349"/>
</linearGradient>
<linearGradient id="paint114_linear_18_2750" x1="-218.221" y1="85.2068" x2="-216.967" y2="85.2068" gradientUnits="userSpaceOnUse">
<stop stop-color="#7877C6"/>
<stop offset="1" stop-color="#E93349"/>
</linearGradient>
<linearGradient id="paint115_linear_18_2750" x1="-187.608" y1="92.0364" x2="-186.499" y2="92.0364" gradientUnits="userSpaceOnUse">
<stop stop-color="#7877C6"/>
<stop offset="1" stop-color="#E93349"/>
</linearGradient>
<linearGradient id="paint116_linear_18_2750" x1="-156.991" y1="98.8656" x2="-156.026" y2="98.8656" gradientUnits="userSpaceOnUse">
<stop stop-color="#7877C6"/>
<stop offset="1" stop-color="#E93349"/>
</linearGradient>
<linearGradient id="paint117_linear_18_2750" x1="-126.377" y1="105.694" x2="-125.558" y2="105.694" gradientUnits="userSpaceOnUse">
<stop stop-color="#7877C6"/>
<stop offset="1" stop-color="#E93349"/>
</linearGradient>
<linearGradient id="paint118_linear_18_2750" x1="-95.7642" y1="112.524" x2="-95.0892" y2="112.524" gradientUnits="userSpaceOnUse">
<stop stop-color="#7877C6"/>
<stop offset="1" stop-color="#E93349"/>
</linearGradient>
<linearGradient id="paint119_linear_18_2750" x1="-2.2011" y1="119.337" x2="-1.93589" y2="119.337" gradientUnits="userSpaceOnUse">
<stop stop-color="#7877C6"/>
<stop offset="1" stop-color="#E93349"/>
</linearGradient>
</defs>
</svg>
