<svg width="109" height="28" viewBox="0 0 109 28" fill="none" xmlns="http://www.w3.org/2000/svg">
<path d="M103.621 25.1087H101.583V15.9217H96.1938V13.9133H109V15.9217H103.621V25.1087Z" fill="#DF494C"/>
<path d="M95.5576 15.9217H85.9033V25.1087H83.8452V13.8735H95.5576V15.9217ZM94.2352 20.4655H86.8678V18.4074H94.2352V20.4655Z" fill="#DF494C"/>
<path d="M80.9121 25.1087H78.8738V22.0364H71.0291V19.9584H78.8738V15.9217H73.5744C73.0773 15.9217 72.61 16.0178 72.1725 16.21C71.7351 16.3956 71.3539 16.6508 71.0291 16.9756C70.7044 17.3004 70.4458 17.6815 70.2536 18.119C70.068 18.5499 69.9752 19.0138 69.9752 19.511V25.1087H67.9171V19.511C67.9171 18.7288 68.0663 17.9964 68.3645 17.3137C68.6628 16.6309 69.0671 16.0344 69.5775 15.524C70.0879 15.0136 70.6878 14.6126 71.3771 14.321C72.0665 14.0227 72.7989 13.8735 73.5744 13.8735H80.9121V25.1087Z" fill="#DF494C"/>
<path d="M66.0481 25.1087H63.2741L60.0925 22.0762H55.9663V20.0578H61.6038C61.8888 20.0578 62.1573 20.0015 62.4091 19.8888C62.661 19.7761 62.8798 19.627 63.0653 19.4414C63.2509 19.2492 63.3968 19.0271 63.5028 18.7753C63.6089 18.5234 63.6619 18.2582 63.6619 17.9798C63.6619 17.6948 63.6089 17.4297 63.5028 17.1844C63.3968 16.9326 63.2509 16.7138 63.0653 16.5282C62.8798 16.3426 62.661 16.1968 62.4091 16.0908C62.1573 15.9781 61.8888 15.9217 61.6038 15.9217H54.9025V25.1087H52.8643V13.9133H61.6038C62.1672 13.9133 62.6975 14.0227 63.1946 14.2414C63.6917 14.4535 64.1226 14.7452 64.4871 15.1164C64.8583 15.4809 65.15 15.9118 65.3621 16.4089C65.5742 16.8994 65.6802 17.4231 65.6802 17.9798C65.6802 18.4372 65.6073 18.878 65.4615 19.3022C65.3157 19.7198 65.1102 20.1042 64.8451 20.4555C64.5866 20.8002 64.2783 21.0985 63.9204 21.3504C63.5625 21.6023 63.1714 21.7879 62.7472 21.9072L66.0481 25.1087Z" fill="#DF494C"/>
<path d="M50.5973 25.1087H43.3691C42.5803 25.1087 41.8644 24.9628 41.2215 24.6712C40.5785 24.3795 40.0284 23.9818 39.571 23.4781C39.1137 22.9677 38.759 22.3711 38.5072 21.6884C38.2619 20.9991 38.1393 20.26 38.1393 19.4712C38.1393 18.6891 38.2619 17.9599 38.5072 17.2838C38.759 16.6011 39.1137 16.0079 39.571 15.5041C40.0284 15.0004 40.5785 14.6027 41.2215 14.311C41.8644 14.0194 42.5803 13.8735 43.3691 13.8735H50.5973V15.9217H43.3691C42.8786 15.9217 42.4345 16.0145 42.0368 16.2001C41.6457 16.3857 41.3143 16.6376 41.0425 16.9557C40.7708 17.2739 40.562 17.6484 40.4161 18.0792C40.2703 18.5101 40.1974 18.9741 40.1974 19.4712C40.1974 19.975 40.2703 20.4456 40.4161 20.8831C40.562 21.3139 40.7708 21.6917 41.0425 22.0165C41.3143 22.3347 41.6457 22.5865 42.0368 22.7721C42.4345 22.9577 42.8786 23.0505 43.3691 23.0505H50.5973V25.1087Z" fill="#DF494C"/>
<path d="M85.7652 8.99004C85.809 9.10684 85.809 9.19444 85.7652 9.25283C85.7214 9.29663 85.5754 9.35503 85.3272 9.42803C85.0936 9.50103 84.7943 9.58863 84.4293 9.69083C84.0789 9.77842 83.7358 9.87332 83.4 9.97552C83.3708 9.97552 83.3489 9.98282 83.3343 9.99742C83.3197 9.99742 83.2979 9.99742 83.2687 9.99742C82.5679 10.2018 81.8671 10.3989 81.1663 10.5887C80.4655 10.7785 79.7647 10.9683 79.0639 11.1581C78.6843 11.2603 78.2974 11.3625 77.9033 11.4647C77.5237 11.5523 77.1441 11.6326 76.7645 11.7056C76.4725 11.764 76.1732 11.8078 75.8666 11.837C75.5746 11.8662 75.2826 11.8516 74.9906 11.7932C74.5672 11.691 74.2241 11.5085 73.9613 11.2457C73.6839 10.9683 73.5306 10.6544 73.5014 10.304C73.4722 9.85142 73.5817 9.34043 73.8299 8.77104C74.0635 8.18706 74.4212 7.61767 74.903 7.06288C74.976 6.97528 75.0782 6.85848 75.2096 6.71248C75.3556 6.56649 75.487 6.43509 75.6038 6.31829L76.0199 5.8803H75.6038C75.3556 5.8803 75.1731 5.8657 75.0563 5.8365C74.9395 5.7927 74.8373 5.7124 74.7497 5.5956C74.6913 5.50801 74.6548 5.44231 74.6402 5.39851C74.6402 5.34011 74.6767 5.29631 74.7497 5.26711C74.8227 5.23791 74.9468 5.21601 75.122 5.20141C75.3118 5.18681 75.5746 5.17221 75.9104 5.15761L76.8959 5.11381L77.1587 4.89482C77.5383 4.55902 77.969 4.25243 78.4507 3.97504C78.9325 3.69764 79.3559 3.50784 79.7209 3.40565C79.8815 3.36185 80.0056 3.33995 80.0932 3.33995C80.1954 3.32535 80.3049 3.33995 80.4217 3.38375C80.7575 3.48594 80.9619 3.68304 81.0349 3.97504C81.1225 4.25243 81.0495 4.53712 80.8159 4.82912L80.7283 4.96052L81.0568 4.98242C81.4656 4.99702 81.743 5.13571 81.889 5.39851C81.9182 5.47151 81.9182 5.52991 81.889 5.57371C81.8598 5.6175 81.7868 5.6321 81.67 5.6175C81.6116 5.5883 81.5167 5.57371 81.3853 5.57371C81.2685 5.57371 81.0641 5.5883 80.7721 5.6175L80.0275 5.6613L79.6771 5.946C79.5603 6.0482 79.3851 6.17959 79.1515 6.34019C78.9325 6.48619 78.6916 6.64678 78.4288 6.82198C78.166 6.99718 77.896 7.17237 77.6186 7.34757C77.3558 7.50817 77.1149 7.65417 76.8959 7.78556C76.8375 7.81476 76.7426 7.86586 76.6112 7.93886C76.4944 8.01186 76.3703 8.08486 76.2389 8.15786C76.0345 8.27465 75.8155 8.41335 75.5819 8.57395C75.3483 8.71994 75.1293 8.88784 74.9249 9.07764C74.7205 9.26744 74.5526 9.47913 74.4212 9.71273C74.2898 9.94632 74.2241 10.2018 74.2241 10.4792C74.2241 10.6982 74.2387 10.8515 74.2679 10.9391C74.3117 11.0121 74.4139 11.0924 74.5745 11.18C74.6621 11.2092 74.7351 11.2311 74.7935 11.2457C74.8665 11.2603 74.9906 11.2676 75.1658 11.2676C75.706 11.253 76.2243 11.18 76.7207 11.0486C77.2317 10.9026 77.7427 10.7493 78.2536 10.5887C79.0128 10.3405 79.772 10.1142 80.5312 9.90982C81.2904 9.70543 82.0569 9.50103 82.8307 9.29663C83.4146 9.12144 84.0059 8.96814 84.6045 8.83674C84.7213 8.80754 84.8454 8.77104 84.9768 8.72724C85.1228 8.68345 85.2542 8.66155 85.371 8.66155C85.5316 8.66155 85.663 8.77104 85.7652 8.99004ZM78.2317 5.04812L78.9325 5.02622L79.6333 5.00432L79.918 4.74152C80.064 4.59552 80.1808 4.45683 80.2684 4.32543C80.3706 4.17943 80.4363 4.06263 80.4655 3.97504C80.4801 3.91664 80.4801 3.88744 80.4655 3.88744C80.4509 3.88744 80.3706 3.90204 80.2246 3.93124C80.1224 3.96044 79.9837 4.01154 79.8085 4.08453C79.6333 4.15753 79.4508 4.24513 79.261 4.34733C79.0858 4.44953 78.9106 4.55902 78.7354 4.67582C78.5602 4.77802 78.4215 4.87292 78.3193 4.96052L78.2317 5.04812ZM75.3848 7.82936L75.8666 7.54467C76.1586 7.36947 76.4652 7.18697 76.7864 6.99718C77.1222 6.79278 77.4288 6.60299 77.7062 6.42779C77.9981 6.25259 78.2317 6.1066 78.4069 5.9898C78.5967 5.8584 78.6916 5.7854 78.6916 5.7708C78.6916 5.7562 78.3923 5.7635 77.7938 5.7927L77.3558 5.8146L76.9616 6.16499C76.7572 6.36939 76.5163 6.61029 76.2389 6.88768C75.9615 7.16508 75.7425 7.39867 75.5819 7.58847L75.3848 7.82936Z" fill="white"/>
<path d="M74.4079 8.94619C74.4663 9.06299 74.4736 9.15059 74.4298 9.20899C74.386 9.25279 74.24 9.31119 73.9918 9.38418C73.7582 9.45718 73.4589 9.54478 73.0939 9.64698C72.7435 9.74918 72.4004 9.84408 72.0646 9.93167C71.9478 9.96087 71.6704 10.0412 71.2324 10.1726C70.7944 10.2894 70.3199 10.4208 69.8089 10.5668C69.7505 10.5814 69.6922 10.596 69.6338 10.6106C69.5754 10.6252 69.5097 10.6471 69.4367 10.6763C69.2615 10.7201 69.0571 10.7785 68.8235 10.8515C68.2249 11.0413 67.619 11.2091 67.0058 11.3551C66.4072 11.5011 65.794 11.5668 65.1662 11.5522C64.553 11.5376 63.9472 11.4135 63.3486 11.18C62.7646 10.9464 62.2828 10.5741 61.9032 10.0631C61.8302 10.3113 61.7499 10.5595 61.6623 10.8077C61.5893 11.0413 61.5017 11.2748 61.3995 11.5084C60.8885 12.7786 60.2169 13.9393 59.3847 14.9905C58.9614 15.5161 58.5088 16.0125 58.027 16.4796C57.9102 16.5818 57.808 16.6621 57.7204 16.7205C57.6328 16.7935 57.5087 16.8227 57.3481 16.8081C57.2021 16.7935 57.078 16.7278 56.9758 16.611C56.859 16.5088 56.786 16.3848 56.7568 16.2388C56.713 16.049 56.7203 15.8592 56.7787 15.6694C56.8371 15.4796 56.9101 15.2971 56.9977 15.1219C57.3773 14.2897 57.8007 13.4794 58.2679 12.691C58.7205 11.888 59.1876 11.0924 59.6694 10.304C60.1366 9.55938 60.6184 8.82209 61.1148 8.09211C61.6112 7.34752 62.1295 6.63213 62.6697 5.94595C63.2245 5.25976 63.8085 4.61007 64.4216 3.99689C65.0494 3.3837 65.721 2.82161 66.4364 2.31062C66.816 2.04782 67.2029 1.81423 67.5971 1.60983C68.0059 1.39083 68.4293 1.22294 68.8673 1.10614C69.1593 1.03314 69.4586 1.00394 69.7651 1.01854C70.0863 1.03314 70.3345 1.15724 70.5097 1.39083C70.6265 1.53683 70.6995 1.70473 70.7287 1.89452C70.7579 2.08432 70.7506 2.26682 70.7068 2.44202C70.663 2.61721 70.59 2.78511 70.4878 2.94571C70.4002 3.0917 70.3053 3.2377 70.2031 3.3837C69.7213 4.05528 69.1812 4.66847 68.5826 5.22326C67.984 5.77805 67.3416 6.29634 66.6554 6.77813C65.9838 7.24532 65.283 7.68332 64.553 8.09211C63.8231 8.4863 63.0931 8.86589 62.3631 9.23089C62.2463 9.28928 62.1733 9.34768 62.1441 9.40608C62.1149 9.47908 62.1368 9.58128 62.2098 9.71268C62.4872 10.1945 62.9179 10.5376 63.5019 10.742C63.6625 10.7712 63.8888 10.7931 64.1808 10.8077C64.4727 10.8223 64.8304 10.815 65.2538 10.7858C65.6918 10.7566 66.1882 10.6909 66.743 10.5887C67.2978 10.4865 67.9183 10.3259 68.6045 10.1069C68.7651 10.0631 68.9111 10.0193 69.0425 9.97547C69.1739 9.93167 69.2761 9.89517 69.3491 9.86597C69.4659 9.83678 69.5827 9.80758 69.6994 9.77838C69.8308 9.74918 69.9257 9.71998 69.9841 9.69078C70.5243 9.54478 71.028 9.40608 71.4952 9.27468C71.977 9.14329 72.4004 9.03379 72.7654 8.94619C73.1304 8.84399 73.4224 8.7637 73.6414 8.7053C73.8604 8.6469 73.9918 8.6177 74.0356 8.6177C74.1086 8.6177 74.1816 8.6542 74.2546 8.7272C74.3276 8.78559 74.3787 8.85859 74.4079 8.94619ZM63.2829 6.77813C63.1661 6.92413 63.042 7.09203 62.9106 7.28182C62.7938 7.45702 62.677 7.62492 62.5602 7.78551C62.458 7.93151 62.3704 8.05561 62.2974 8.15781C62.239 8.26 62.2171 8.3111 62.2317 8.3111C62.2317 8.3111 62.2974 8.2746 62.4288 8.20161C62.5748 8.12861 62.7427 8.04101 62.9325 7.93881C63.1223 7.83661 63.3194 7.72711 63.5238 7.61032C63.7428 7.49352 63.9326 7.39132 64.0932 7.30372C65.2173 6.67593 66.2247 6.02625 67.1153 5.35466C68.0059 4.66847 68.7286 3.99689 69.2834 3.3399C69.6046 2.96031 69.8527 2.60991 70.0279 2.28872C70.2177 1.95292 70.2761 1.75583 70.2031 1.69743C70.1593 1.66823 70.0352 1.66093 69.8308 1.67553C69.6411 1.69013 69.4659 1.71203 69.3053 1.74123C68.2979 2.03322 67.1445 2.77051 65.8451 3.95309C65.4509 4.31808 65.0129 4.77067 64.5311 5.31086C64.0494 5.83645 63.6333 6.32554 63.2829 6.77813ZM60.8739 10.6544C61.0199 10.2894 61.0929 10.0777 61.0929 10.0193C61.0929 10.0047 61.0564 10.0412 60.9834 10.1288C60.925 10.2164 60.852 10.3259 60.7644 10.4573C60.633 10.6763 60.487 10.9245 60.3264 11.2018C60.1512 11.4646 59.976 11.7347 59.8008 12.0121C59.6256 12.2895 59.465 12.545 59.319 12.7786C59.173 13.0122 59.0563 13.202 58.9687 13.348C58.8811 13.5086 58.7789 13.6984 58.6621 13.9174C58.5307 14.1364 58.4066 14.3481 58.2898 14.5525C58.173 14.7715 58.0781 14.954 58.0051 15.1C57.9175 15.246 57.8737 15.3263 57.8737 15.3409C57.8737 15.3555 57.9102 15.319 57.9832 15.2314C58.0562 15.1584 58.1438 15.0635 58.246 14.9467C58.8884 14.2021 59.4139 13.5013 59.8227 12.8443C60.2315 12.1727 60.5819 11.4427 60.8739 10.6544Z" fill="white"/>
<path d="M61.3176 8.9683C61.3614 9.0851 61.3614 9.1654 61.3176 9.20919C61.2738 9.25299 61.1278 9.31139 60.8796 9.38439C60.1789 9.60339 59.4781 9.80778 58.7773 9.99758C58.0765 10.1874 57.3757 10.3845 56.6749 10.5889C56.5289 10.6181 56.3829 10.6546 56.2369 10.6984C56.1055 10.7276 55.9668 10.7568 55.8208 10.786C55.6602 10.8152 55.5142 10.8298 55.3828 10.8298C55.2514 10.8152 55.1054 10.8006 54.9448 10.786C54.6529 10.7568 54.3609 10.7203 54.0689 10.6765C53.7915 10.6327 53.5141 10.567 53.2367 10.4794C53.1491 10.4502 53.0688 10.4283 52.9958 10.4137C52.9228 10.3845 52.8571 10.3553 52.7987 10.3261L52.6454 10.2604L52.295 10.5013C51.9446 10.7641 51.5723 10.9904 51.1781 11.1802C50.7839 11.37 50.3897 11.5233 49.9955 11.64C49.6889 11.7276 49.4335 11.7568 49.2291 11.7276C49.0247 11.6838 48.8422 11.567 48.6816 11.3773C48.521 11.2021 48.4407 10.9977 48.4407 10.7641C48.4407 10.5889 48.5283 10.3407 48.7035 10.0195C48.8641 9.69828 49.0685 9.36979 49.3167 9.034C49.4481 8.8588 49.6014 8.6836 49.7765 8.50841C49.9517 8.31861 50.1342 8.13612 50.324 7.96092C50.5138 7.78572 50.6963 7.63242 50.8715 7.50103C51.0613 7.35503 51.2219 7.24553 51.3533 7.17253C51.5869 7.05574 51.784 7.06304 51.9446 7.19443C52.0468 7.25283 52.1417 7.29663 52.2293 7.32583C52.4045 7.35503 52.5943 7.43533 52.7987 7.56673C53.0177 7.68352 53.1856 7.82222 53.3024 7.98282C53.4776 8.24561 53.5506 8.53031 53.5214 8.8369C53.5068 9.1435 53.39 9.44279 53.171 9.73478L53.0615 9.84428L53.4338 9.93188C53.9594 10.0633 54.485 10.0998 55.0105 10.0414C55.5507 9.98298 56.0763 9.88808 56.5873 9.75669C56.8501 9.68369 57.1056 9.61069 57.3538 9.53769C57.6166 9.46469 57.8794 9.39899 58.1422 9.34059C58.4634 9.26759 58.7846 9.1873 59.1058 9.0997C59.427 8.9975 59.7482 8.9026 60.0694 8.815C60.2008 8.7858 60.3394 8.7493 60.4854 8.7055C60.646 8.66171 60.792 8.63981 60.9234 8.63981C61.084 8.63981 61.2154 8.7493 61.3176 8.9683ZM51.9227 8.11422C51.8059 8.27481 51.784 8.49381 51.857 8.7712C51.9008 8.9026 51.9665 9.0486 52.0541 9.20919C52.1417 9.35519 52.2074 9.42819 52.2512 9.42819C52.295 9.42819 52.368 9.36979 52.4702 9.25299C52.5724 9.1216 52.66 8.9975 52.733 8.8807C52.7914 8.7493 52.8352 8.60331 52.8644 8.44271C52.8644 8.34051 52.8571 8.27481 52.8425 8.24561C52.8425 8.21641 52.8206 8.16532 52.7768 8.09232C52.7038 8.01932 52.6162 7.96822 52.514 7.93902C52.2512 7.85142 52.0541 7.90982 51.9227 8.11422ZM51.8789 9.80048L51.6599 9.53769C51.6015 9.46469 51.5358 9.37709 51.4628 9.27489C51.4044 9.1727 51.3606 9.0851 51.3314 9.0121C51.2438 8.8661 51.1854 8.742 51.1562 8.63981C51.1416 8.61061 51.1197 8.60331 51.0905 8.61791C51.0613 8.63251 50.981 8.7055 50.8496 8.8369C50.2656 9.43549 49.813 10.0195 49.4919 10.5889C49.3751 10.7933 49.3167 10.9247 49.3167 10.9831C49.3021 11.0269 49.3313 11.0342 49.4043 11.005C49.7838 10.932 50.178 10.8006 50.5868 10.6108C51.0102 10.4064 51.3825 10.1874 51.7037 9.95378L51.8789 9.80048Z" fill="white"/>
<path d="M50.1403 8.81501C50.1987 8.93181 50.1987 9.01941 50.1403 9.07781C50.0965 9.12161 49.9505 9.18001 49.7023 9.253C49.4687 9.326 49.2351 9.3917 49.0015 9.4501C48.7679 9.5085 48.5343 9.5742 48.3007 9.6472C47.7897 9.79319 47.2714 9.93919 46.7458 10.0852C46.2349 10.2312 45.7239 10.3772 45.2129 10.5232C45.1107 10.5524 44.9866 10.5816 44.8406 10.6108C44.6362 10.64 44.4318 10.6473 44.2274 10.6327C44.0376 10.6181 43.8478 10.5962 43.658 10.567C43.5558 10.5524 43.4609 10.5451 43.3733 10.5451C43.2857 10.5305 43.1981 10.5086 43.1105 10.4794L42.8477 10.4137C42.8039 10.4137 42.7674 10.4064 42.7382 10.3918C42.709 10.3918 42.6725 10.3845 42.6287 10.3699C42.5849 10.4137 42.5338 10.4648 42.4754 10.5232C42.4316 10.5816 42.3732 10.64 42.3002 10.6984C42.1688 10.8444 42.0593 10.9466 41.9717 11.005C41.8841 11.0634 41.7746 11.1291 41.6432 11.2021C40.9425 11.5525 40.4461 11.516 40.1541 11.0926C40.0957 10.9904 40.0665 10.8809 40.0665 10.7641C40.0665 10.6911 40.0738 10.64 40.0884 10.6108C40.103 10.567 40.1614 10.5013 40.2636 10.4137C40.4534 10.2385 40.7089 10.0852 41.0301 9.95379C41.3512 9.82239 41.6797 9.7348 42.0155 9.691L42.2345 9.6691L42.3659 9.4063C42.4389 9.24571 42.4973 9.09241 42.5411 8.94641C42.5995 8.78581 42.6214 8.68362 42.6068 8.63982C42.5922 8.59602 42.5192 8.58142 42.3878 8.59602C42.2564 8.59602 42.0885 8.61792 41.8841 8.66172C41.6943 8.70552 41.4753 8.76391 41.2271 8.83691C40.9936 8.89531 40.7527 8.96831 40.5045 9.05591C39.9935 9.2603 39.6066 9.4063 39.3438 9.4939C39.0956 9.5669 38.935 9.6034 38.862 9.6034C38.6576 9.6034 38.4751 9.5231 38.3145 9.3625C38.1539 9.18731 38.0736 8.99751 38.0736 8.79311C38.0736 8.58872 38.1612 8.34782 38.3364 8.07043C38.5262 7.77843 38.7598 7.49374 39.0372 7.21634C39.3146 6.93895 39.6212 6.68345 39.957 6.44986C40.3074 6.20166 40.6359 6.01917 40.9425 5.90237C41.0009 5.88777 41.0666 5.87317 41.1396 5.85857C41.2125 5.84397 41.2709 5.83667 41.3147 5.83667C41.4607 5.83667 41.5921 5.90237 41.7089 6.03377C41.8403 6.15056 41.8914 6.26736 41.8622 6.38416C41.8622 6.45716 41.8038 6.49366 41.687 6.49366C41.5702 6.50826 41.4169 6.56666 41.2271 6.66885C41.0374 6.75645 40.8403 6.87325 40.6359 7.01925C40.4315 7.15065 40.2271 7.30394 40.0227 7.47914C39.8183 7.63974 39.6431 7.80033 39.4971 7.96093C39.4387 8.03393 39.373 8.12153 39.3 8.22372C39.227 8.31132 39.154 8.39892 39.081 8.48652C39.0226 8.55952 38.9715 8.63252 38.9277 8.70552C38.8985 8.76391 38.8912 8.79311 38.9058 8.79311C38.9058 8.80771 38.9788 8.79311 39.1248 8.74931C39.2854 8.69092 39.4679 8.62522 39.6723 8.55222C40.1687 8.39162 40.5921 8.26752 40.9425 8.17993C41.3074 8.07773 41.614 8.01933 41.8622 8.00473C42.1104 7.99013 42.3148 8.01203 42.4754 8.07043C42.6506 8.11423 42.7966 8.20182 42.9134 8.33322C43.1908 8.62522 43.2565 8.99751 43.1105 9.4501C43.0959 9.4939 43.0813 9.5304 43.0667 9.5596C43.0521 9.5888 43.0448 9.6107 43.0448 9.6253L43.001 9.7567C43.2054 9.7859 43.3952 9.80779 43.5704 9.82239C43.7602 9.83699 43.9573 9.85889 44.1617 9.88809H44.315C44.3588 9.88809 44.4245 9.87349 44.5121 9.84429C44.7311 9.7859 44.9428 9.7348 45.1472 9.691C45.3662 9.6326 45.5779 9.5742 45.7823 9.5158C46.2495 9.3844 46.702 9.2603 47.14 9.14351C47.5926 9.01211 48.0525 8.88801 48.5197 8.77121C48.6657 8.74201 48.8044 8.70552 48.9358 8.66172C49.0818 8.61792 49.2278 8.58142 49.3738 8.55222C49.4322 8.53762 49.4906 8.52302 49.549 8.50842C49.622 8.49382 49.6877 8.48652 49.7461 8.48652C49.9067 8.48652 50.0381 8.59602 50.1403 8.81501Z" fill="white"/>
<path d="M0.971802 1.4394C0.971802 0.844807 1.45382 0.362793 2.04841 0.362793H33.1527C33.7473 0.362793 34.2293 0.844807 34.2293 1.4394V26.3079C34.2293 26.9025 33.7473 27.3845 33.1527 27.3845H2.04841C1.45382 27.3845 0.971802 26.9025 0.971802 26.3079V1.4394Z" fill="#DF494C"/>
<path d="M34.2273 25.7333H24.7956C23.1539 25.7333 21.6639 25.4298 20.3258 24.8228C18.9876 24.2158 17.8425 23.3881 16.8906 22.3396C15.9387 21.2773 15.2007 20.0357 14.6764 18.6147C14.166 17.18 13.9108 15.6418 13.9108 14.0001C13.9108 12.3722 14.166 10.8547 14.6764 9.4475C15.2007 8.02654 15.9387 6.79182 16.8906 5.74335C17.8425 4.69488 18.9876 3.86714 20.3258 3.26013C21.6639 2.65311 23.1539 2.34961 24.7956 2.34961H34.2273V6.61248H24.7956C23.7747 6.61248 22.8504 6.80562 22.0226 7.1919C21.2087 7.57818 20.5189 8.10242 19.9533 8.76461C19.3877 9.4268 18.9531 10.2063 18.6496 11.103C18.3461 11.9997 18.1943 12.9654 18.1943 14.0001C18.1943 15.0486 18.3461 16.028 18.6496 16.9386C18.9531 17.8353 19.3877 18.6216 19.9533 19.2976C20.5189 19.9598 21.2087 20.4841 22.0226 20.8703C22.8504 21.2566 23.7747 21.4498 24.7956 21.4498H34.2273V25.7333Z" fill="white"/>
<path d="M18.6399 19.07C18.7628 19.3157 16.9 18.4832 16.7771 18.6061C16.6849 18.6982 19.1623 18.9164 18.6399 19.07C18.1482 19.2236 20.0146 19.3072 19.5229 19.4301C19.0312 19.553 19.5229 18.9007 18.6399 19.07C17.5643 19.3771 20.6292 19.1229 19.5229 19.4301C18.4473 19.7373 19.7155 18.7628 18.6399 19.07C18.4248 19.1314 16.5622 18.6646 16.2549 18.726C15.8246 18.7874 15.3944 18.8028 14.9642 18.7721C14.5647 18.7414 14.1652 18.6952 13.7657 18.6338C13.5506 18.6031 13.4567 18.5723 13.2723 18.5416C13.0879 18.5109 12.8913 18.5416 12.6133 18.4494L12.0601 18.3111C11.9679 18.3111 11.8911 18.2957 11.8296 18.265C11.7682 18.265 11.6913 18.2497 11.5991 18.2189C11.5069 18.3111 11.3994 18.4187 11.2765 18.5416C11.1843 18.6645 11.0613 18.7875 10.9077 18.9104C10.6311 19.2175 10.4006 19.4329 10.2163 19.5557C10.0319 19.6786 9.80138 19.817 9.52481 19.9706C8.04972 20.7078 7.00487 20.6309 6.39026 19.7401C6.26733 19.5251 6.20587 19.2944 6.20587 19.0487C6.20587 18.8951 6.22124 18.7874 6.25197 18.726C6.2827 18.6338 6.40562 18.4954 6.62074 18.3111C7.02024 17.9425 7.55803 17.6195 8.23411 17.3431C8.91019 17.0667 9.60163 16.8821 10.3084 16.7899L10.7694 16.7439L11.046 16.1907C11.1996 15.8528 11.3226 15.5298 11.4148 15.2227C11.5377 14.8848 11.5838 14.6695 11.553 14.5773C11.5223 14.4852 11.3687 14.4544 11.0921 14.4851C10.8155 14.4851 10.4621 14.5313 10.0319 14.6234C9.63236 14.7156 9.1714 14.8386 8.64898 14.9922C8.15728 15.1151 7.65022 15.2689 7.1278 15.4532C6.05222 15.8832 5.23785 16.1908 4.68469 16.3751C4.16227 16.5287 3.82423 16.6056 3.67058 16.6056C3.24034 16.6056 2.85621 16.4364 2.51817 16.0985C2.18013 15.7299 2.01111 15.33 2.01111 14.9C2.01111 14.47 2.19549 13.9624 2.56426 13.3788C2.96377 12.7645 3.45546 12.1647 4.03935 11.5811C4.62323 10.9975 5.26858 10.4591 5.97539 9.9677C6.71293 9.44554 7.40438 9.06102 8.04972 8.81529C8.17265 8.78458 8.31094 8.75382 8.46459 8.7231C8.61825 8.69238 8.74117 8.677 8.83336 8.677C9.14067 8.677 9.41725 8.81543 9.66309 9.09187C9.93967 9.33759 10.0472 9.58369 9.98577 9.82941C9.98577 9.98299 9.86284 10.0599 9.617 10.0599C9.37115 10.0906 9.04848 10.2137 8.64898 10.4287C8.24947 10.613 7.83461 10.859 7.40438 11.1662C6.97414 11.4426 6.54391 11.7656 6.11368 12.1342C5.68345 12.4721 5.31468 12.8105 5.00737 13.1483C4.88444 13.3019 4.74616 13.4865 4.5925 13.7015C4.43885 13.8858 4.28519 14.0704 4.13154 14.2547C4.00862 14.4082 3.90106 14.562 3.80886 14.7156C3.7474 14.8385 3.73204 14.9 3.76277 14.9C3.76277 14.9307 3.91642 14.9 4.22373 14.8078C4.56177 14.6849 4.94591 14.5465 5.37614 14.3929C6.42099 14.0551 7.31218 13.7936 8.04972 13.6093C8.818 13.3943 9.46334 13.2713 9.98577 13.2405C10.5082 13.2098 10.9384 13.256 11.2765 13.3788C11.6452 13.471 11.9525 13.6555 12.1984 13.932C12.7823 14.5463 12.9206 15.3307 12.6133 16.2829C12.5825 16.375 12.5518 16.4519 12.5211 16.5134C12.4903 16.5748 12.475 16.6209 12.475 16.6517L12.3828 16.9282C12.813 16.9897 13.2125 17.0358 13.5813 17.0665C13.9808 17.0972 14.7183 17.1434 15.1486 17.2048C15.3317 17.2048 15.379 17.1741 15.5634 17.1126C16.5613 16.9914 18.2096 19.1621 18.6399 19.07C19.1008 18.9471 18.2096 19.1928 18.6399 19.07C19.6233 18.7935 17.7179 19.3157 18.6399 19.07C19.5925 18.7935 18.5395 19.6758 19.5229 19.4301C19.7148 19.377 18.3633 19.1621 18.6399 19.07C19.1795 18.9262 19.8917 21.7349 19.5229 19.4301C13.1943 14.5357 11.768 14.2902 18.6399 19.07C18.9625 20.6373 18.517 19.07 18.6399 19.07C18.6399 18.5852 18.2553 19.1437 18.6399 19.07Z" fill="white"/>
</svg>
